<svg xmlns="http://www.w3.org/2000/svg" width="256" height="256"><path fill-opacity=".686" d="M5.11 1.396C-.155 4.314.073-1.38.035 127.8c-.038 130.751-.311 124.387 5.437 127.005 3.719 1.695 241.259 1.73 244.975.037 1.398-.637 3.444-2.688 4.547-4.557 1.978-3.352 2.006-5.084 2.006-123.901 0-73.848-.359-120.28-.928-119.928-.51.315-1.217-.338-1.571-1.452C252.855-.182 257.436-.003 127.8.035 29.865.064 7.056.317 5.11 1.396M.484 128c0 66.825.12 94.162.266 60.75.146-33.413.146-88.088 0-121.5C.604 33.837.484 61.175.484 128" fill="#1976D2" fill-rule="evenodd"/><path fill-opacity=".226" d="M10.5 2C9.759 4.335 8 4.687 8 2.5c0-1.911-.99-1.896-3.782.06-1.664 1.165-2.072 2.175-1.614 4 .46 1.829.21 2.44-.996 2.44-1.822 0-2.15 1.547-.54 2.542.588.363.87 1.177.627 1.809-.252.659.536 1.149 1.849 1.149 1.259 0 2.214-.394 2.123-.875-.092-.481.402-1.083 1.097-1.338.737-.27 1.89 1.034 2.764 3.125.824 1.973 1.934 3.588 2.466 3.588 1.839 0 2.243-4.823.601-7.168-1.881-2.685-2.056-4.152-.432-3.611.639.213 1.28 1.192 1.425 2.175.407 2.778.918 2.847 4.826.653 3.12-1.753 3.732-1.833 4.224-.549.89 2.318 2.526 1.772 2.175-.725-.208-1.481.272-2.342 1.437-2.574C27.466 6.96 28 7.486 28 8.927c0 1.14.45 2.073 1 2.073s1 1.925 1 4.277c0 4.402-2.404 9.21-4.085 8.171-.521-.323-.755-.898-.52-1.278.816-1.32-2.186-4.25-5.257-5.13-1.698-.487-3.045-.583-2.994-.213C17.514 19.515 16.751 21 15 21c-1.1 0-2 .45-2 1s.356 1 .792 1c.435 0 1.495 1.552 2.354 3.449 1.345 2.967 1.363 3.525.127 4-2.586.992-3.591.639-2.37-.832 1.483-1.788-1.001-2.881-4.532-1.995-2.278.571-2.417.408-1.785-2.11.66-2.63.57-2.705-2.45-2.042-1.982.435-3.182.292-3.261-.391-.298-2.574-.414-2.951-1.125-3.662C.337 19.004 0 25.042 0 32.833 0 43.185.323 47 1.2 47c.933 0 .933.267 0 1.2-1.734 1.734-1.734 125.866 0 127.6.933.933.933 1.2 0 1.2-1.548 0-1.745 53.545-.2 54.5.55.34 1 1.068 1 1.618s-.432.733-.96.407c-.56-.346-.871.98-.748 3.191.174 3.113.566 3.753 2.21 3.611 1.885-.164 1.871-.07-.254 1.662-1.404 1.143-2.019 2.443-1.634 3.449.424 1.104.99 1.305 1.794.639 1.531-1.271 1.936 2.804.456 4.587-.775.934-.201 1.769 2.237 3.251 2.913 1.772 4.986 1.987 18.515 1.928 12.569-.054 15.142-.309 14.703-1.455-.747-1.946.68-1.73 2.395.362.789.963 1.149 1.188.801.5-.348-.687-.156-1.25.426-1.25s1.059.45 1.059 1c0 1.362 12.609 1.28 15.186-.1 1.345-.719 1.832-.738 1.41-.055-.438.708 4.034 1.061 13.845 1.093 13.353.044 14.444-.089 13.89-1.695-.492-1.429-.294-1.382 1.097.257 1.202 1.415 1.85 1.635 2.218.75.286-.688.96-1.25 1.496-1.25.537 0 .727.403.423.895-.309.5 3.595.914 8.87.939l9.422.045 4.092-4.44c4.858-5.27 7.247-5.556 11.929-1.43 2.814 2.481 3.169 3.229 2.127 4.484-1.11 1.339 3.728 1.507 43.314 1.507 30.356 0 44.772-.338 45.219-1.062.361-.584 1.625-1.503 2.809-2.043 1.184-.539 3.278-1.652 4.653-2.471 3.113-1.856 13.596-.696 15.055 1.666.498.805.848.739 1.201-.227.292-.801.809-.188 1.254 1.485.679 2.559 1.073 2.786 3.873 2.228 1.714-.342 3.268-1.064 3.452-1.605.185-.541.687-.766 1.117-.501 1.267.783 3.771-2.682 4.875-6.744.675-2.485.991-42.288.925-116.5-.055-61.999-.359-109.383-.676-105.297l-.576 7.428-2.796-8.631c-1.539-4.747-4.682-12.015-6.987-16.151L241.528.054l-52.2-.036c-28.709-.02-52.431.34-52.715.799-.284.46-.258 1.824.058 3.033.541 2.069.655 2.094 1.954.423 1.318-1.694 1.352-1.693.755.018-.344.985-.233 1.667.247 1.516.48-.151 2.09.956 3.578 2.459 1.487 1.504 2.266 2.734 1.73 2.734-1.251 0-.41 4.723 1.184 6.643.975 1.175.944 1.408-.154 1.163-.756-.168-1.395.219-1.42.861-.06 1.554-1.545 2.995-1.545 1.5 0-.642-.661-1.167-1.469-1.167-.894 0-1.243.586-.893 1.5.317.825 1.182 1.5 1.922 1.5s2.084 1.554 2.985 3.454c.902 1.9 2.256 3.966 3.01 4.592 1.16.962 1.153 1.47-.041 3.296-.777 1.187-1.279 3.058-1.116 4.158.367 2.48-4.711 5.853-7.487 4.972-1.109-.352-1.911-.134-1.911.52 0 .619-.409.873-.91.564-.5-.309-1.663-.273-2.584.08-1.34.514-1.407.818-.34 1.522 1.075.709.997 1.138-.4 2.21-.954.731-1.442 1.623-1.084 1.981.358.358.126.651-.515.651-.642 0-1.167 1.07-1.167 2.378 0 2.84-2.371 5.077-4.51 4.256-1.213-.465-1.335-.213-.583 1.192.581 1.086.596 2.346.039 3.228-.631.997-.92 1.058-.931.196-.024-2.008-1.457-1.441-2.528 1-.543 1.238-1.255 2.025-1.583 1.75-.919-.771-4.011 2.15-4.983 4.709-.48 1.26-1.319 2.291-1.865 2.291s-.734-.675-.418-1.5c.317-.825.108-1.5-.464-1.5-.571 0-1.312-.858-1.645-1.908-.333-1.049-1.24-2.151-2.016-2.449-.934-.358-1.222-.048-.851.919.385 1.004.084 1.278-.963.876-2.41-.925-2.621 2.851-.245 4.364 1.125.716 1.371 1.126.546.912-1.785-.464-3.924 2.039-3.968 4.643-.024 1.365-.495 1.671-1.782 1.154-4.026-1.617-4.643-1.677-2.75-.269 2.168 1.614 5.215 2.725 8.754 3.192 1.235.163 3.513.807 5.061 1.431S116.626 83 117.232 83c.606 0 .821.281.478.624-.343.343-4.356-.307-8.917-1.443-12.404-3.09-14.856-3.136-14.105-.267.594 2.271 5.048 6.683 5.894 5.838.324-.325 1.563.247 2.754 1.27 8.553 7.349 8.701 7.446 10.914 7.096.412-.065.75.557.75 1.382 0 .825.337 1.421.75 1.323.412-.097 2.644.365 4.958 1.028 4.505 1.288 6.577 3.123 3.601 3.189-2.517.055 4.653 3.543 8.935 4.346 1.875.352 4.274 1.33 5.332 2.174 1.799 1.435 1.699 1.49-1.543.86-1.907-.371-4.157-1.045-5-1.497-1.294-.695-26.063-6.87-34.033-8.485-3.706-.751-13.206-3.511-15.5-4.503-1.1-.476-3.575-1.284-5.5-1.795l-3.5-.931 3.228-.725C79.524 91.856 83.477 89 81.55 89c-.382 0 .238-1.186 1.377-2.635C84.067 84.916 85 82.918 85 81.924c0-.993.45-2.084 1-2.424.55-.34 1-1.716 1-3.059 0-1.343.45-2.441 1-2.441s1-1.002 1-2.227c0-7.469 17.633-50.308 26.455-64.273a625.337 625.337 0 003.911-6.25c.561-.933-.501-1.25-4.186-1.25h-4.939l-3.83 8.505c-3.244 7.202-4.04 8.294-5.201 7.134-1.16-1.161-.82-2.463 2.222-8.505C105.408 3.21 106.678 0 106.253 0c-1.011 0-3.12 3.319-6.033 9.497-1.296 2.748-2.91 5.673-3.585 6.5-.676.827-2.293 4.203-3.594 7.503-1.3 3.3-3.483 8.475-4.851 11.5-1.368 3.025-2.592 5.97-2.72 6.545-.309 1.389-6.918 18.955-8.918 23.705-.868 2.063-2.049 3.75-2.624 3.75-.576 0-.75.478-.389 1.063s-.157 1.962-1.151 3.061c-1.443 1.594-1.542 2.163-.489 2.813 1.377.851.771 7.842-.968 11.158-.529 1.01-.282 2.387.673 3.75 2.057 2.937.839 2.756-9.372-1.391-4.803-1.951-9.675-3.681-10.828-3.846-2.825-.403-4.553-1.558-3.904-2.608.293-.474.006-1.187-.638-1.585-.731-.452-.903-.291-.457.43.937 1.517.403 1.462-4.378-.451-2.208-.883-3.788-1.972-3.511-2.42.277-.448-.626-1.702-2.006-2.788-3.085-2.426-3.285-3.671-.337-2.093l2.173 1.163-2.159-2.746c-1.992-2.532-2.14-5.217-.223-4.032.738.456 2.021-1.567 1.956-3.086-.013-.323 1.437-1.371 3.224-2.33 1.787-.958 3.38-2.152 3.539-2.652.36-1.129-6.104-5.41-8.169-5.41-.833 0-1.514-.45-1.514-1 0-1.3 2.698-1.297 3.502.004.341.552 1.83.74 3.309.419 1.867-.406 2.274-.293 1.332.371-1.529 1.078.17 2.748 1.782 1.752 1.226-.758 6.153 1.52 5.516 2.55-.274.442.473 1.323 1.658 1.957 3.158 1.69 4.263-.691 1.569-3.385l-2.095-2.095 2.367-.559c2.668-.63 3.785-4.435 1.951-6.645-.625-.753-.887-1.369-.583-1.369.304 0 .163-1.359-.314-3.019-.476-1.661-.495-2.791-.043-2.511.974.602 2.942-1.536 2.734-2.97-.08-.55 1.421-1.811 3.335-2.803s2.692-1.568 1.73-1.281c-.962.286-1.75.153-1.75-.298C61 32.088 63.296 27 64.211 27c.559 0 .826-1.295.593-2.879-.292-1.995.119-3.216 1.341-3.979.97-.606 2.279-2.065 2.909-3.242.906-1.694.88-1.977-.124-1.357-.943.583-1.063.292-.465-1.129.443-1.053.75-2.926.682-4.164-.154-2.78 1.848-2.985 2.56-.261.286 1.094.919 1.742 1.407 1.441.487-.302.886.154.886 1.011 0 2.068.592 1.967 3.081-.522 1.958-1.958 1.978-2.155.337-3.355-1.174-.859-1.506-1.893-1.016-3.169.856-2.23.723-2.985-.466-2.657-.475.131-.607-.432-.293-1.25C76.141.189 72.071 0 43.674 0 12.013 0 11.118.054 10.5 2M80.813.683c.721.289 1.584.253 1.916-.079.332-.332-.258-.568-1.312-.525-1.165.048-1.402.285-.604.604M81.5 4c-1.63.701-1.688.872-.309.93.93.038 1.969-.38 2.309-.93.711-1.15.676-1.15-2 0M66.429 6.429c-1.059.774-1.578 1.755-1.154 2.18.425.424 1.523.022 2.439-.895 2.162-2.161 1.212-3.111-1.285-1.285m115.384 6.254c.721.289 1.584.253 1.916-.079.332-.332-.258-.568-1.312-.525-1.165.048-1.402.285-.604.604M11 15.559c0 .857.45 1.281 1 .941.55-.34 1-1.041 1-1.559S12.55 14 12 14s-1 .702-1 1.559m85.409 1.817c-.847 2.208.28 3.335 1.808 1.807.902-.902.905-1.461.016-2.35-.89-.89-1.324-.761-1.824.543M0 33c0 7.883.261 14.073.579 13.754.694-.693.605-26.903-.093-27.602C.219 18.885 0 25.117 0 33m91.909-2.426c-5.673 12.165-7.428 16.866-11.397 30.525C76.813 73.826 76.433 76 77.907 76c.499 0 2.35-4.388 4.112-9.75 4.402-13.395 10.73-29.938 12.466-32.587.791-1.208 2.098-4.065 2.905-6.35 1.291-3.66 1.289-4.222-.014-4.722-1.083-.416-2.548 1.723-5.467 7.983m40.749-7.318c.283.457.033 1.411-.555 2.119-.819.987-.567 1.251 1.078 1.13 1.192-.088 2.502-1.119 2.945-2.317.687-1.857.464-2.132-1.591-1.962-1.315.109-2.16.573-1.877 1.03M4.5 31c-.782 1.266.542 1.266 2.5 0 1.293-.835 1.266-.971-.191-.985-.93-.008-1.969.435-2.309.985m-.913 7.634c-.389 1.015-.003 2.367.942 3.294 1.465 1.437 1.542 1.315.896-1.428-.898-3.813-1.037-3.954-1.838-1.866M59.197 41c-.165 2.16.212 3 1.346 3 1.012 0 1.295-.447.791-1.25-.431-.687-.655-2.038-.496-3 .158-.962-.095-1.75-.562-1.75-.468 0-.953 1.35-1.079 3m-36.738-.933c-.363.586-.445 1.281-.183 1.543s.743-.218 1.069-1.067c.676-1.762.1-2.072-.886-.476m3.604.127c-.034.932.949 2.754 2.187 4.049 1.238 1.295 1.711 1.649 1.053.785-.659-.863-1.643-2.685-2.187-4.049-.658-1.648-1.01-1.911-1.053-.785M3 45c0 .55.477 1 1.059 1s.781-.45.441-1-.816-1-1.059-1S3 44.45 3 45m246.079 1.583c.048 1.165.285 1.402.604.605.289-.722.253-1.585-.079-1.917-.332-.332-.568.258-.525 1.312M22.484 48.017c-1.374 1.519-1.55 2.317-.698 3.169.853.853 1.408.434 2.205-1.662.586-1.541.9-2.967.698-3.169-.203-.202-1.195.546-2.205 1.662M.242 111.75C.033 166.266.199 175 1.441 175c.793 0 1.716-.445 2.052-.989.35-.565-.05-.735-.934-.395-1.38.529-1.572-6.069-1.809-62.262L.485 48.5l-.243 63.25m123.874-58c-.064 1.237.297 2.25.802 2.25.505 0 1.67.288 2.588.641 1.309.502 1.597.141 1.332-1.672-.186-1.272-.901-2.498-1.589-2.724-.793-.261-1.028.167-.643 1.171.335.871.143 1.584-.426 1.584-.568 0-1.239-.788-1.491-1.75-.344-1.317-.486-1.193-.573.5m7.963 3c-.053 1.512.495 2.245 1.671 2.235 1.079-.01 1.328-.297.65-.75-.605-.404-1.357-1.41-1.671-2.235-.382-1.002-.597-.753-.65.75m-85.158 6.5c-.043 1.237-.316 1.656-.607.93-.381-.955-.942-.728-2.024.817-.87 1.241-2.121 1.898-2.984 1.567-2.238-.859-3.6.377-2.232 2.025 1.45 1.747 5.049 1.83 6.949.161.783-.687.629-.293-.343.876-1.608 1.936-1.621 2.183-.141 2.75 2.248.863 2.171.914 2.877-1.898.54-2.151.924-2.366 2.609-1.465 1.086.582 1.975.731 1.975.331 0-.399.661.147 1.468 1.215 1.147 1.516 1.475 1.606 1.5.412C55.986 70.13 55.1 68.793 54 68c-1.1-.793-2-2.226-2-3.186 0-.959-.87-2.209-1.934-2.779-2.722-1.457-3.056-1.328-3.145 1.215m9.644-1.355c-.604.977 2.393 2.48 3.245 1.629.288-.288-.114-.531-.893-.539-1.167-.013-1.152-.187.083-.985 1.293-.835 1.266-.971-.191-.985-.93-.008-1.94.388-2.244.88M43 76.474c0 .669 5.019 3.144 8 3.944 1.375.369.25-.47-2.5-1.864-5.426-2.752-5.5-2.78-5.5-2.08M74 79c0 2.274 2.508 2.725 3.324.598.628-1.636-.11-2.598-1.991-2.598C74.6 77 74 77.9 74 79m31.603-.833c.283.458.938.833 1.456.833s.941-.375.941-.833c0-.459-.655-.834-1.456-.834-.801 0-1.224.375-.941.834m-17.732.024c-.071.17-.204 1.497-.295 2.949-.113 1.794.249 2.481 1.129 2.143 1.528-.586 1.732-3.895.295-4.783-.55-.34-1.058-.479-1.129-.309M19.158 85c0 1.375.227 1.938.504 1.25.278-.687.278-1.812 0-2.5-.277-.687-.504-.125-.504 1.25m6.152 3.5c.005 3.3.192 4.529.415 2.732.222-1.797.218-4.497-.01-6-.229-1.503-.411-.032-.405 3.268m94.503-3.817c.721.289 1.584.253 1.916-.079.332-.332-.258-.568-1.312-.525-1.165.048-1.402.285-.604.604m-47.062 2.841c-.664 3.469 1.024 4.197 2.251.971 1.28-3.366 1.266-3.495-.385-3.495-.761 0-1.601 1.136-1.866 2.524m49.916 2.143c-.813.812-.894 5.333-.096 5.333 1.411 0 3.568-3.194 3.058-4.526-.601-1.565-1.861-1.908-2.962-.807m-91.331 1.9c-.331.862-.092 2.077.531 2.7.844.844 1.133.444 1.133-1.567 0-3.009-.749-3.518-1.664-1.133m15 0c-.888 2.315 1.077 3.845 2.592 2.019C50.21 92.043 49.629 90 47.91 90c-.535 0-1.243.705-1.574 1.567M9.345 94.543c-.326.849-.341 1.794-.035 2.1.876.876 2.69-.609 2.69-2.202 0-1.919-1.908-1.845-2.655.102m9.655.398c0 1.132.45 2.059 1 2.059s1-.648 1-1.441-.45-1.719-1-2.059c-.55-.34-1 .309-1 1.441m15-1.274c0 .183.865 1.198 1.923 2.256 1.629 1.629 2.011 1.693 2.5.418.817-2.131.721-2.548-.423-1.841-.55.34-1 .216-1-.274 0-.491-.675-.893-1.5-.893s-1.5.15-1.5.334m7.088 1.948c-1.178 1.498-2.017 2.995-1.865 3.327 1.271 2.77 7.587 9.991 8.777 10.034 1.084.04 1.165.268.293.822-.932.592-.885 1.67.206 4.734 2.481 6.965 1.318 23.469-1.883 26.733-.666.679-1.22 2.135-1.231 3.235-.012 1.1-.358 3.012-.77 4.25-.72 2.161-.519 2.25 5.068 2.257 3.199.004 9.558.904 14.13 2 4.573 1.096 8.46 1.993 8.639 1.993.179 0 .6-1.463.937-3.25.336-1.787 1.958-6.097 3.605-9.577 2.373-5.016 2.784-6.777 1.98-8.5-.831-1.778-.799-1.877.173-.545 1.065 1.458 1.691 1.267 6.021-1.844 2.658-1.909 4.846-4.217 4.862-5.128.028-1.479.14-1.468 1.054.101.789 1.354 1.453 1.526 2.904.75 1.034-.554 2.762-1.007 3.84-1.007 1.383 0 1.944-.663 1.905-2.25-.031-1.237.277-3.003.683-3.923.519-1.174.083-2.025-1.459-2.85-1.209-.647-1.922-.729-1.583-.182.338.548-.095 1.268-.962 1.6-2.244.862-2.624.757-1.844-.506.611-.987-4.058-5.762-5.723-5.853-.36-.02-.466 1.876-.234 4.214l.42 4.25-1.443-3.691c-1.885-4.824-2.337-8.278-1.088-8.324.55-.021 1.9-.574 3-1.231 2.964-1.768-.388-1.533-3.5.246-3.366 1.924-3.904 1.848-3.297-.472.386-1.475-.204-2.261-2.344-3.124a210.078 210.078 0 01-4.859-2.033c-1.1-.485-3.469-1.031-5.263-1.214-1.795-.184-4.299-1.306-5.565-2.495C63.407 96.973 62.135 96 61.847 96c-1.056 0 6.033 13.193 7.814 14.543 1.179.893 1.369 1.405.53 1.425-.72.018-1.031.482-.691 1.032.34.55-.084 1-.941 1s-1.559-.562-1.56-1.25c-.001-1.899-5.97-14.112-6.593-13.489-.3.299.032 1.468.737 2.596 1.499 2.4.848 3.46-1.557 2.537-.956-.366-1.46-1.28-1.151-2.086.365-.95-.46-.714-2.442.697-2.78 1.979-4.178 1.602-2.06-.555.578-.589.419-1.645-.418-2.779-1.062-1.438-1.768-1.606-3.302-.785-1.072.574-2.259.735-2.636.358-.377-.377-1.154-.024-1.726.785-.863 1.222-.946 1.18-.489-.248.304-.946-.052-2.883-.79-4.305l-1.341-2.585-2.143 2.724m17.476.678c.376.986.935 1.541 1.243 1.233.308-.307.001-1.114-.683-1.793-.988-.98-1.102-.865-.56.56m112.468 7.646c-.719 1.344-.716 2.138.009 2.586 1.307.808 3.959-1.3 3.959-3.147 0-2.056-2.777-1.663-3.968.561m-157.915.561l-.986 8.903c-.422 3.796-.476 8.521-.12 10.5.531 2.956.782 2.083 1.404-4.903.637-7.146.362-20.516-.298-14.5M96 103.987c-1.046.667-.44.79 2 .405 2.302-.362 6.223.318 11.457 1.988 4.377 1.397 8.118 2.379 8.314 2.183.628-.628-15.184-5.564-17.774-5.548-1.374.009-3.172.446-3.997.972M8.71 108c.288 1.1.696 2 .907 2 .21 0 .383-.9.383-2s-.408-2-.906-2c-.499 0-.671.9-.384 2M99 111.885c0 1.438.461 1.875 1.542 1.46 1.707-.655 1.497-2.499-.354-3.116-.66-.22-1.188.517-1.188 1.656M58.571 115.5c-2.708 1.925-4.601 3.5-4.208 3.5.394 0 3.055-1.575 5.913-3.5 2.859-1.925 4.752-3.5 4.207-3.5-.544 0-3.205 1.575-5.912 3.5M6.5 115c.34.55 1.041 1 1.559 1s.941-.45.941-1-.702-1-1.559-1-1.281.45-.941 1m66.042 3.75c.417 1.513.787 3.537.822 4.5.036.963.346 1.75.69 1.75s1.164 1.183 1.823 2.629c2.321 5.094 2.315 1.404-.008-5.073-2.289-6.383-4.844-9.306-3.327-3.806m34.21-1.5c-.379.963-1.603 1.75-2.721 1.75-1.631 0-2.025.64-2.001 3.25.026 2.692.206 2.95 1.05 1.5.561-.963 1.807-1.75 2.77-1.75 1.846 0 4.15-1.809 4.15-3.259 0-.472-.416-.602-.924-.288-.509.314-1.084-.222-1.28-1.191-.337-1.673-.39-1.674-1.044-.012m-41.074 1.453c-1.762.456-1.762.515 0 1.817 1.507 1.113 1.594 1.573.505 2.663-1.09 1.089-1.565.982-2.75-.624-1.38-1.869-1.433-1.849-1.433.55 0 3.257 1.738 4.891 5.2 4.891 1.942 0 2.847-.536 2.952-1.75.084-.963.216-2.425.294-3.25.151-1.599-1.585-5.078-2.437-4.884-.28.064-1.329.328-2.331.587m70.512 7.487c-2.253 3.43-3.832 6.478-3.507 6.773.325.295.799-.046 1.053-.759.254-.713 2.004-3.589 3.889-6.39 1.886-2.802 3.256-5.266 3.046-5.477-.211-.21-2.227 2.424-4.481 5.853m-23.435-2.69c-.263 1.375-.09 2.5.384 2.5.473 0 .861-1.125.861-2.5s-.173-2.5-.383-2.5c-.211 0-.599 1.125-.862 2.5m-7.107.265c-.248.404.854.783 2.45.841 1.596.059 2.902-.18 2.902-.531 0-.913-4.811-1.191-5.352-.31m18.477 1.86c-.66 1.448-.971 2.863-.69 3.143.28.28.984-.74 1.565-2.268 1.372-3.608.684-4.296-.875-.875m19.914 7.607c-2.999 3.34-5.013 5.892-4.477 5.67 1.446-.595 10.808-10.866 10.335-11.338-.222-.223-2.858 2.328-5.858 5.668m11.366 5.018l-1.905 2.25 2.25-1.905c2.114-1.79 2.705-2.595 1.905-2.595-.19 0-1.202 1.012-2.25 2.25m-5 4l-1.905 2.25 2.25-1.905c1.238-1.048 2.25-2.06 2.25-2.25 0-.8-.805-.209-2.595 1.905m6.56 4.292c-.942 1.135-.985 1.838-.165 2.658 1.325 1.325 4.2-.607 4.2-2.822 0-1.85-2.446-1.75-4.035.164m-15.16 5.679c-7.964 9.657-15.623 17.01-16.897 16.222-.75-.463-.959-.334-.545.335.386.625-1.143 2.171-3.595 3.634l-4.268 2.545 3.153-.228c1.733-.126 2.975-.516 2.759-.868-.216-.351 1.184-1.841 3.112-3.311 4.69-3.578 12.699-11.647 16.165-16.286 1.546-2.07 3.374-4.359 4.061-5.085 1.285-1.359 1.588-2.179.805-2.179-.244 0-2.382 2.349-4.75 5.221M99 151.059c0 .582.45.781 1 .441s1-.816 1-1.059-.45-.441-1-.441-1 .477-1 1.059m4.872.691c-1.243 1.586-1.208 1.621.378.378 1.666-1.307 2.195-2.128 1.372-2.128-.207 0-.995.787-1.75 1.75m-82.399 2.206c.325.526 1.252.703 2.059.393 2.067-.793 1.824-1.349-.591-1.349-1.132 0-1.793.43-1.468.956M91 158.059c0 .582.45.781 1 .441s1-.816 1-1.059-.45-.441-1-.441-1 .477-1 1.059m6 0c0 .582.45.781 1 .441s1-.816 1-1.059-.45-.441-1-.441-1 .477-1 1.059m-9.116 2.047c1.08 1.159 2.447 1.807 3.039 1.441.593-.366 1.077-.162 1.077.453s.45.84 1 .5c1.717-1.061 1.093-2.403-.936-2.012-1.064.205-2.469-.271-3.122-1.058-.653-.786-1.599-1.43-2.103-1.43-.504 0-.034.948 1.045 2.106M102 159c-.901.582-1.025.975-.309.985.655.008 1.469-.435 1.809-.985.767-1.242.421-1.242-1.5 0m53.158 2c0 1.375.227 1.938.504 1.25.278-.687.278-1.812 0-2.5-.277-.687-.504-.125-.504 1.25m77.342-.444c-2.648 1.294-2.707 1.407-.5.969 1.375-.274 4.3-.511 6.5-.527 2.954-.021 3.608-.282 2.5-.998-2.092-1.352-4.982-1.163-8.5.556M21 163.344c-7.346 2.192-12.648 4.565-10.333 4.626.642.016 3.167-.827 5.611-1.875 4.351-1.865 14.762-3.81 23.722-4.433 2.475-.172.9-.367-3.5-.434-5.671-.086-10.183.53-15.5 2.116m75.733-1.22c.679.684 1.486.991 1.793.683.308-.308-.247-.867-1.233-1.243-1.425-.542-1.54-.428-.56.56M253 162c1.939 1.253 3 1.253 3 0 0-.55-1.012-.993-2.25-.985-1.819.013-1.963.201-.75.985m-149.834 1.876c-1.067.677-1.007.971.302 1.473.956.367 1.382.217 1.025-.36-.336-.544-.172-.989.365-.989.536 0 1.202.563 1.48 1.25.301.747.536.545.583-.5.084-1.87-1.575-2.256-3.755-.874M121 165c0 .55.45 1 1 1s1-.45 1-1-.45-1-1-1-1 .45-1 1m29.701 1.667c1.574 2.402 3.299 3.099 3.299 1.333 0-.55-.45-1-1-1s-1-.6-1-1.333c0-.734-.636-1.334-1.414-1.334-1.185 0-1.167.377.115 2.334m-113.951-.931c-2.196.515-2.23 2.076-.095 4.435.99 1.094 1.191 1.829.5 1.829-.635 0-1.155-.45-1.155-1s-.423-1-.94-1c-1.531 0-.663 5.299.955 5.834 1.272.421 1.288.252.113-1.171-2.241-2.714-.42-1.89 2.296 1.039 2.884 3.11 2.712 3.976-.454 2.282-1.7-.91-2.111-.906-1.803.018.22.658 1.82 1.794 3.557 2.524 2.7 1.135 3.078 1.121 2.609-.099-.301-.785-.097-1.427.453-1.427 1.583 0 2.175 2.637.886 3.95-.899.915-.823 1.118.328.871.825-.176 1.387.242 1.25.929-.138.688.2 1.25.75 1.25s1-.45 1-1 .975-1 2.167-1c1.191 0 1.86.306 1.486.681-1.024 1.023 4.452 6.319 6.534 6.319.997 0 1.813.439 1.813.975s-1.462.757-3.25.49l-3.25-.484 3 1.464c1.954.954 2.39 1.481 1.25 1.51-2.518.065-2.153 1.54.702 2.841 2.037.928 2.357.869 1.889-.351-.398-1.036-.09-1.286 1.048-.849.886.34 1.611 1.02 1.611 1.511 0 .491.868.893 1.929.893 1.547 0 2.16-1.14 3.095-5.75.642-3.162 1.727-8.48 2.411-11.817.684-3.337.91-6.972.501-8.076-1.359-3.675-25.943-9.321-33.186-7.621m72.475 1.438c.215.645 1.68 1.346 3.256 1.557 1.576.211 3.687.824 4.692 1.362 1.116.597 1.827.611 1.827.036 0-.517-2.105-1.658-4.678-2.535-5.593-1.906-5.593-1.906-5.097-.42M251 168.5c0 .765.936 1.044 2.5.745 1.375-.263 2.5-.598 2.5-.745 0-.147-1.125-.482-2.5-.745-1.564-.299-2.5-.02-2.5.745m-92.493.489c-.35.566.051.734.941.393 1.732-.665 2.049-1.382.611-1.382-.518 0-1.216.445-1.552.989M215.5 170c-.777 1.257-2.227 1.117 13.667 1.323 7.517.097 13.955.466 14.308.818.801.802 4.525-.112 4.525-1.111 0-1.804-31.407-2.799-32.5-1.03m-185.5.819c0 1.208 1.897 2.617 2.591 1.924.251-.252-.229-1.027-1.067-1.723-.95-.789-1.524-.865-1.524-.201m224.143.088c-1.006.625-1.053 1.03-.183 1.568 1.372.848 2.402.097 1.894-1.38-.208-.606-.914-.683-1.711-.188M161 172c-.901.582-1.025.975-.309.985.655.008 1.469-.435 1.809-.985.767-1.242.421-1.242-1.5 0m49.813-.317c.721.289 1.584.253 1.916-.079.332-.332-.258-.568-1.312-.525-1.165.048-1.402.285-.604.604m-11.813.983c-2.619.412-15.228 3.172-18.265 3.998-.97.264-1.518.878-1.217 1.364.3.487 1.217.627 2.037.313.82-.315 6.06-1.32 11.644-2.234 5.785-.946 10.328-2.187 10.56-2.884.409-1.226-.116-1.288-4.759-.557m6.882 2.048c-.066.432-.04 1.2.056 1.705.096.506-.526.338-1.382-.372-1.443-1.198-2.007-.753-1.643 1.297.082.464-.427.637-1.132.384-1.464-.526-12.781 8.019-12.781 9.651 0 .287 3.248.432 7.217.321 6.506-.18 7.254-.003 7.597 1.8.307 1.618.132 1.761-.917.75-.713-.687-1.994-1.221-2.847-1.187-.888.037-.483.527.95 1.149 5.272 2.288 8.721 2.839 11.295 1.803 2.046-.824 1.988-.901-.795-1.07-1.65-.1-3.338-.129-3.75-.063-.412.065-.75-.384-.75-.999 0-.636.889-.884 2.068-.575 2.979.779 7.648-1.114 8.229-3.336.386-1.474 1.197-1.815 3.6-1.51 3.631.459 4.004-.718.913-2.882-2.654-1.86-3.925-1.116-1.333.78 1.648 1.204 1.515 1.293-1.312.877-1.73-.253-2.924-.819-2.653-1.256.27-.437-1.085-.311-3.011.28-1.925.591-3.501 1.449-3.501 1.907 0 .458-.723.832-1.607.832-.967 0-1.393.558-1.069 1.401.768 2.002-1.29 1.436-5.194-1.428-1.854-1.36-3.767-2.36-4.25-2.223-.484.137-.88-.183-.88-.711 0-.529 1.912-1.456 4.25-2.06 7.097-1.834 7.75-2.082 7.75-2.953 0-.461.96-.588 2.134-.281 2.044.535 2.019.619-.588 1.985-3.561 1.865-2.535 2.81 1.518 1.398 1.741-.607 3.564-.858 4.051-.557.487.301.885.044.885-.571s.45-.84 1-.5c.55.34 1 .237 1-.228 0-.466.972-.92 2.16-1.009 1.188-.09 2.489-.695 2.891-1.345.487-.788.956-.472 1.407.95.372 1.173 1.299 2.132 2.06 2.132.76 0 1.886.787 2.501 1.75.988 1.545 1.064 1.489.648-.483-.418-1.982-.241-2.109 1.583-1.133 1.671.894 1.949.828 1.494-.358-.307-.802-.21-2.022.216-2.712.533-.862.968-.485 1.393 1.205.492 1.963 1.11 2.365 3.057 1.993 3.422-.654 9.3 1.486 11.087 4.037 1.746 2.493 2.011 1.519.403-1.485-.605-1.131-.717-1.867-.25-1.638 6.736 3.313 6.35 2.72 6.351 9.743l.001 6.581-4.751-.263c-16.585-.918-32.329.51-36.904 3.347-1.184.734-3.06 2.609-4.168 4.165l-2.016 2.83 3.432-.4c1.888-.221 4.093.147 4.9.817.924.767 3.131 1.014 5.962.667 2.472-.303 4.739-.155 5.038.329.299.483-.928 1.061-2.726 1.283-2.857.354-2.733.425.981.565 2.338.088 4.25-.29 4.25-.84s.702-1 1.559-1 1.305-.41.995-.912c-.31-.502.226-.761 1.191-.577.965.185 3.33.434 5.255.554l3.5.219-4 .716c-3.532.632-3.24.721 2.5.758 4.163.027 5.601-.211 4-.664l-2.5-.707 2.311-.616c1.388-.37 2.495-.138 2.771.581.285.744 1.952 1.055 4.405.821l3.946-.377.32 11.352c.176 6.244.363-1.023.417-16.148.054-15.125-.112-26.689-.37-25.697-.371 1.431-.759 1.561-1.884.628-.779-.647-1.416-.902-1.416-.568 0 .334-2.173-.249-4.83-1.296-4.089-1.612-7.689-1.921-23.5-2.021-10.268-.065-18.723.236-18.788.668M73 177c.825.533 2.412.976 3.527.985 1.116.008 2.982.684 4.149 1.501 1.732 1.213 2.215 1.24 2.633.151.355-.925-1.02-1.688-4.475-2.486-6.078-1.403-7.842-1.449-5.834-.151m167.5 0c.34.55 1.041 1 1.559 1s.941-.45.941-1-.702-1-1.559-1-1.281.45-.941 1m4.5 1c0 .55.45 1 1 1s1-.45 1-1-.45-1-1-1-1 .45-1 1m-173.921 1.583c.048 1.165.285 1.402.604.605.289-.722.253-1.585-.079-1.917-.332-.332-.568.258-.525 1.312m13.53 3.667c-.726 7.135-1.49 23.903-.938 20.602.482-2.887 3.882-4.468 5.938-2.762.818.679 1.424.665 1.861-.041.356-.577 1.521-1.049 2.589-1.049s1.941-.445 1.941-.989-1.125-.895-2.5-.782c-1.375.114-2.5.559-2.5.989 0 .43-.477.782-1.059.782s-.734-.526-.336-1.17c.486-.787.178-.961-.941-.531-.915.351-1.664.176-1.664-.389 0-.566-.482-.73-1.071-.366-.701.433-.96-.497-.75-2.691.217-2.268.78-3.254 1.74-3.047 1.1.238 1.161-.004.274-1.073-.862-1.039-.855-1.671.031-2.557 1.514-1.514 3.113-1.53 2.181-.021-.443.715-.275.883.44.44.635-.392 1.155-.236 1.155.346S91.45 190 92 190c1.373 0 .808-2.251-.901-3.594-1.14-.895-1.158-1.251-.096-1.908.918-.567 1.066-.418.497.502-.524.848-.418 1.067.302.622.611-.377.846-1.374.524-2.216-.482-1.256-1.068-1.069-3.276 1.046-3.285 3.147-4.001 2.603-3.315-2.515.291-2.165.276-3.937-.031-3.937-.308 0-.801 2.363-1.095 5.25m139.897-3.244c.998 1.104 2.021 1.8 2.274 1.548.541-.542-2.309-3.554-3.364-3.554-.399 0 .091.903 1.09 2.006m28.921.515c1.06.802 2.172 1.214 2.471.914.628-.627-1.912-2.412-3.398-2.388-.55.009-.133.673.927 1.474M79.51 183.215c-2.349 1.361-6.451 1.689-7.142.571-1.221-1.975-2.149-.222-3.698 6.987-2.001 9.312-2.022 9.75-.42 8.486 1.793-1.415 4.75-1.161 4.75.408 0 1.883 2.936 1.662 3.68-.276.568-1.48.691-1.48 1.519 0 .495.885 1.553 1.609 2.351 1.609 2.084 0 2.041-11.265-.05-13-2.161-1.794-1.845-3.323.557-2.695 1.574.411 1.811.241 1.009-.726-.577-.695-.753-1.559-.391-1.921.977-.977.083-.747-2.165.557m133.69 1.044c-.599.721-.725 1.892-.282 2.609.583.943.969.671 1.404-.99.728-2.787.327-3.365-1.122-1.619m19.3 1.37c-4.4.763-8.72 1.217-9.6 1.011-1.603-.375-6.798 2.847-5.885 3.65 1.043.917 7.948-.542 7.326-1.548-1.294-2.093 12.144-.106 17.511 2.59 2.831 1.422 5.148 2.194 5.148 1.716s-2.338-2.034-5.196-3.459c-3.214-1.601-4.41-2.589-3.135-2.589 1.134 0 3.205.9 4.604 2 3.031 2.385 3.394 2.444 3.394.556 0-.795-.263-1.376-.584-1.291-.321.085-1.933-.639-3.583-1.607l-3-1.762 2.834.592c1.836.384 2.607.226 2.191-.448-.77-1.245-1.694-1.2-12.025.589m-161.384 1.187c-.064 1.273.356 3.197.932 4.273.925 1.73 1.221 1.785 2.529.477.814-.815 2.143-1.227 2.952-.917 1.542.592 1.862-.467.899-2.977-.433-1.128-1.271-1.291-3.444-.668-2.281.655-2.961.482-3.311-.84-.295-1.114-.479-.899-.557.652M218 186c0 .55.477 1 1.059 1s.781-.45.441-1-.816-1-1.059-1-.441.45-.441 1m-169.771 1.187c.498 1.495 2.771 2.318 2.771 1.003 0-.537-.713-1.249-1.584-1.584-.973-.373-1.431-.15-1.187.581m50.786-.496c.009.445.452 1.484.985 2.309.835 1.293.971 1.266.985-.191.008-.93-.435-1.969-.985-2.309-.55-.34-.993-.254-.985.191m86.044 4.403c-3.236 2.955-4.07 5.231-1.565 4.27.822-.316 1.247-.975.944-1.465-.303-.49.487-1.293 1.756-1.785 1.268-.492 3.42-1.323 4.782-1.845l2.475-.95-2.667-.509c-1.975-.378-3.46.214-5.725 2.284m48.941-.708c0 .226 1.8 1.35 4 2.497 2.2 1.147 4 1.642 4 1.101 0-.541-.17-.984-.378-.984s-2.008-.681-4-1.513c-1.992-.833-3.622-1.328-3.622-1.101M96 192.3c0 1.053-.789 1.7-2.071 1.7-1.842 0-1.905.167-.572 1.5.825.825 1.93 1.5 2.455 1.5 1.383 0 2.296-4.292 1.155-5.433-.623-.623-.967-.362-.967.733m-47 1.2c0 .825.661 1.5 1.469 1.5.894 0 1.243-.586.893-1.5-.317-.825-.978-1.5-1.469-1.5-.491 0-.893.675-.893 1.5m11 .5c0 .55.477 1 1.059 1s.781-.45.441-1-.816-1-1.059-1-.441.45-.441 1m-18 1.378c0 .207.788.995 1.75 1.75 1.586 1.243 1.621 1.208.378-.378-1.307-1.666-2.128-2.195-2.128-1.372m28 .015c0 .216.675.652 1.5.969.825.316 1.5.139 1.5-.393 0-.533-.675-.969-1.5-.969s-1.5.177-1.5.393m43.727 2.543c-.351 1.34-.085 1.755.886 1.382 1.575-.604 1.817-1.934.501-2.748-.488-.301-1.112.314-1.387 1.366M149 197.5c0 .825.436 1.5.969 1.5.532 0 .709-.675.393-1.5-.317-.825-.753-1.5-.969-1.5-.216 0-.393.675-.393 1.5m8.194 1.581c.168.78.677 1.691 1.13 2.024.453.332.083 1.345-.822 2.25-.919.919-1.146 1.645-.514 1.645.621 0 .847.457.502 1.016-.346.559-1.016.777-1.49.484-.474-.293-1.144-.075-1.49.484-.92 1.488 4.014 1.736 8.396.422 1.722-.516 2.2-.387 1.681.453-.399.645-1.144.915-1.656.598-.512-.316-.931-.068-.931.551 0 .655.802.872 1.916.519 1.054-.335 2.205-.14 2.559.432.354.573 1.141 1.041 1.751 1.041.609 0 .827-.281.483-.624-.343-.343 1.132-2.469 3.277-4.723 2.145-2.255 3.765-4.235 3.599-4.401-.166-.166-1.941-.364-3.943-.439-2.003-.075-3.642-.512-3.642-.97 0-.457-1.575-.582-3.5-.276-2.152.342-3.5.147-3.5-.505 0-.584-.477-1.062-1.059-1.062s-.721.563-.308 1.25c.48.798.119.737-.997-.169-1.51-1.226-1.707-1.226-1.442 0m88.17 1.413c-.316.822-.976 1.246-1.469.941-.492-.304-.895-.076-.895.506 0 1.9 2.753 1.113 3.29-.941.608-2.326-.083-2.703-.926-.506m2.812.579c-1.098 1.773-1.098 1.991 0 1.282.728-.47 2.103-.855 3.055-.855 2.451 0 2.68-1.942.269-2.282-1.181-.166-2.542.593-3.324 1.855M47.5 201c.34.55.816 1 1.059 1s.441-.45.441-1-.477-1-1.059-1-.781.45-.441 1m3.628.692c.754.931.85 1.379.212.997-.638-.383-1.887-.416-2.775-.075-1.251.48-1.357.932-.468 2.003.914 1.101.728 1.383-.916 1.383-1.134 0-2.341.45-2.681 1-.818 1.323 1.436 1.267 5.458-.135 1.849-.645 3.535-.753 3.899-.25.354.487 1.543.964 2.643 1.061 1.709.151 1.782.005.5-1-.864-.677-1.366-2.342-1.184-3.926.287-2.491.017-2.75-2.872-2.75-2.869 0-3.051.169-1.816 1.692M61.5 201c2.749 1.181 4.328 1.181 2.5 0-.825-.533-2.175-.945-3-.914-.989.036-.819.347.5.914m43.59 3.068c-.114 5.802 2.25 13.793 6.097 20.609 1.652 2.928 3.157 5.323 3.343 5.323.187 0-1.204-3.342-3.092-7.427-1.887-4.085-4.067-10.948-4.845-15.25-1.259-6.965-1.423-7.322-1.503-3.255m4.723-2.385c.721.289 1.584.253 1.916-.079.332-.332-.258-.568-1.312-.525-1.165.048-1.402.285-.604.604M94 203.048c0 .641-.675.907-1.5.59-.825-.316-1.5-.139-1.5.393 0 1.239 3.696 1.27 4.457.038.317-.512.118-1.213-.441-1.559-.559-.345-1.016-.103-1.016.538m30.5-.048c-.34.55.084 1 .941 1s1.559-.45 1.559-1-.423-1-.941-1-1.219.45-1.559 1m-46.421 1.583c.048 1.165.285 1.402.604.605.289-.722.253-1.585-.079-1.917-.332-.332-.568.258-.525 1.312m-19.996-.224c1.178 1.016 6.024 1.622 5.442.681-.354-.572-1.816-1.04-3.251-1.04-1.434 0-2.42.162-2.191.359m13.73 1.324c.721.289 1.584.253 1.916-.079.332-.332-.258-.568-1.312-.525-1.165.048-1.402.285-.604.604m180.937.979c.688.278 1.813.278 2.5 0 .688-.277.125-.504-1.25-.504s-1.937.227-1.25.504M207.5 211l-5 .686 4.5.069c2.475.039 6.75-.281 9.5-.709l5-.779-4.5.024c-2.475.013-6.75.332-9.5.709m-43.75 1.662c.688.278 1.813.278 2.5 0 .688-.277.125-.504-1.25-.504s-1.937.227-1.25.504m6.25.154c0 .577 1.012 1.383 2.25 1.791 3.27 1.079 23.75 1.224 23.75.169 0-.492-.45-.616-1-.276-.55.34-1 .218-1-.27s-2.588-.967-5.75-1.063c-3.162-.097-8.562-.452-12-.788-4.084-.4-6.25-.248-6.25.437m-25 2.243c0 .582.45.781 1 .441s1-.816 1-1.059-.45-.441-1-.441-1 .477-1 1.059m3.964.777c.659 1.284 1.472 2.061 1.807 1.726.336-.335-.203-1.386-1.197-2.336-1.728-1.65-1.755-1.623-.61.61m6.65.601c.303.79 1.187 1.193 1.963.895 1.689-.648.891-2.332-1.105-2.332-.814 0-1.176.607-.858 1.437M174.5 218c.34.55.816 1 1.059 1s.441-.45.441-1-.477-1-1.059-1-.781.45-.441 1m3.233.124c.679.684 1.486.991 1.793.683.308-.308-.247-.867-1.233-1.243-1.425-.542-1.54-.428-.56.56m-103.654 1.459c.048 1.165.285 1.402.604.605.289-.722.253-1.585-.079-1.917-.332-.332-.568.258-.525 1.312m112.734-.9c.721.289 1.584.253 1.916-.079.332-.332-.258-.568-1.312-.525-1.165.048-1.402.285-.604.604M167.5 220c1.59.683 1.179.887-2 .993-3.785.127-3.866.192-1.5 1.222 2.83 1.233 25.415 1.687 26.577.535 1.387-1.375-.409-1.969-6.771-2.24-6.085-.259-6.131-.243-1.306.448 4.831.692 4.747.721-2.5.864-4.4.086-6.95-.201-6.169-.696.936-.594.38-1.034-1.875-1.485-4.639-.928-7.006-.737-4.456.359m-95 5c.34.55 1.041 1 1.559 1s.941-.45.941-1-.702-1-1.559-1-1.281.45-.941 1m-9.687 1.683c.721.289 1.584.253 1.916-.079.332-.332-.258-.568-1.312-.525-1.165.048-1.402.285-.604.604m99.188.09c0 .4 4.388.863 9.75 1.03 10.041.312 19.37 2.174 24.705 4.932 2.78 1.438 2.93 1.436 1.725-.016-2.343-2.825-13.113-5.449-24.931-6.076-6.187-.328-11.25-.269-11.249.13M22 228c0 .55.477 1 1.059 1s.781-.45.441-1-.816-1-1.059-1-.441.45-.441 1m10.75-.338c.688.278 1.813.278 2.5 0 .688-.277.125-.504-1.25-.504s-1.937.227-1.25.504m25.329.921c.048 1.165.285 1.402.604.605.289-.722.253-1.585-.079-1.917-.332-.332-.568.258-.525 1.312M68.5 228c-1.319.567-1.489.878-.5.914.825.031 2.175-.381 3-.914 1.828-1.181.249-1.181-2.5 0m24.187.42c-.473 1.203-.275 2.224.529 2.735 2.013 1.277 3.784.985 3.784-.624 0-.854-.591-1.241-1.413-.926-.844.324-1.56-.191-1.779-1.282-.346-1.719-.41-1.714-1.121.097M28 228.755c0 .55.622 1.517 1.383 2.148 1.077.893 1.532.761 2.053-.597.368-.96.35-1.425-.041-1.034-.391.391-1.315.209-2.053-.403-.819-.68-1.342-.724-1.342-.114m53.079.828c.048 1.165.285 1.402.604.605.289-.722.253-1.585-.079-1.917-.332-.332-.568.258-.525 1.312m5.35.534c0 1.345.392 1.514 1.785.768.982-.525 1.786-1.362 1.786-1.858 0-.497-.804-.842-1.786-.768-.982.074-1.785.91-1.785 1.858m37.8-.929c.618 1.854 2.771 2.161 2.771.395 0-.87-.713-1.583-1.583-1.583-.871 0-1.406.534-1.188 1.188m-90.022 1.852c-1.063 1.702-.96 1.96.785 1.96 2.13 0 2.46-.74 1.208-2.71-.555-.873-1.11-.664-1.993.75m95.909-.849c-.152 2.217 1.119 2.932 2.932 1.649 1.2-.85 1.159-.935-.235-.49-1.056.338-1.855-.095-2.134-1.155-.419-1.588-.454-1.588-.563-.004m-118.609.798c-.35.566.051.734.941.393 1.732-.665 2.049-1.382.611-1.382-.518 0-1.216.445-1.552.989M25.5 231c-.34.55-.141 1 .441 1S27 231.55 27 231s-.198-1-.441-1-.719.45-1.059 1m-6.687.683c.721.289 1.584.253 1.916-.079.332-.332-.258-.568-1.312-.525-1.165.048-1.402.285-.604.604m41.178.828c-1.35 1.626-.291 1.965 1.866.599.824-.523.967-1.101.363-1.474-.546-.338-1.549.056-2.229.875M115 231.378c0 .207.787.995 1.75 1.75 1.586 1.243 1.621 1.208.378-.378-1.307-1.666-2.128-2.195-2.128-1.372M7.211 233.399c.709.77 1.447 1.25 1.639 1.067.593-.564-.91-2.466-1.948-2.466-.54 0-.401.63.309 1.399M42 233.167c0 .458.423.833.941.833s1.173-.375 1.456-.833c.283-.459-.14-.834-.941-.834-.801 0-1.456.375-1.456.834m8.015.024c-.008.93.435 1.969.985 2.309 1.266.782 1.266-.542 0-2.5-.835-1.293-.971-1.266-.985.191m19.491 1.805c-2.403 1.704-4.245 2.426-4.625 1.811-.427-.691-.838-.685-1.272.017A1.22 1.22 0 0064 238.5c.568.351.774 1.057.457 1.569-.316.512-.136.931.401.931.536 0 1.202-.562 1.48-1.25.403-1 .52-1 .583 0 .043.688.619 1.25 1.279 1.25.933 0 .933-.267 0-1.2-1.794-1.794-1.495-2.435 1.767-3.786 2.897-1.2 6.14-4.095 4.405-3.932-.479.045-2.669 1.356-4.866 2.914m8.524-2.437c-.055 1.93 2.642 4.762 3.835 4.025.642-.397.904-1.148.582-1.669-.322-.521-.976-.706-1.455-.41-.478.295-1.333-.26-1.9-1.234s-1.045-1.295-1.062-.712M.079 234.583c.048 1.165.285 1.402.604.605.289-.722.253-1.585-.079-1.917-.332-.332-.568.258-.525 1.312m14-.892c-.123 1.856 1.967 2.673 3.258 1.275.908-.984.793-1.131-.522-.669-.927.325-1.904.053-2.171-.603-.375-.921-.504-.921-.565-.003m10.734-.008c.721.289 1.584.253 1.916-.079.332-.332-.258-.568-1.312-.525-1.165.048-1.402.285-.604.604m68.257 1.008c-.038 1.205.38 2.469.93 2.809 1.183.731 1.183-.248 0-3-.829-1.928-.862-1.921-.93.191m-71.665 1.076c2.26 2.649 2.262 2.65 2.262.733 0-.825-.221-1.279-.492-1.009-.27.271-1.207-.059-2.083-.732-.975-.75-.854-.36.313 1.008m11.627-1.017c.017.412.692 1.624 1.5 2.691 1.497 1.98 1.955.992.861-1.859-.611-1.592-2.42-2.229-2.361-.832m53.698-.107c-.286.471.061 1.394.772 2.05 1.012.935 1.672.772 3.05-.75.967-1.069 1.276-1.943.686-1.943-.589 0-1.3.563-1.579 1.25-.394.972-.718.948-1.458-.107-.523-.746-1.185-.971-1.471-.5M99 235c-.825.533-1.05.969-.5.969s1.675-.436 2.5-.969c.825-.533 1.05-.969.5-.969s-1.675.436-2.5.969m140.095 2.167c-2.982 3.749-1.746 4.878 5.035 4.599 4.839-.199 5.214-.797 2.831-4.516-1.736-2.709-3.449-3.03-2.031-.381 1.038 1.94.519 3.142-1.347 3.116-.613-.009-.522-.372.21-.836 1.02-.647.915-1.263-.5-2.913l-1.793-2.092-2.405 3.023m-180.981-.238c-.859.532-.962 1.047-.29 1.462.571.353 1.339.154 1.707-.441.918-1.486.188-2.012-1.417-1.021m17.659 1.293c-1.41 1.737-1.953 1.873-3.234.811-.87-.722-1.539-.836-1.539-.262 0 2.105 3.382 2.292 5.378.296 1.106-1.106 1.803-2.219 1.55-2.472-.253-.254-1.223.478-2.155 1.627m-75.694.361c.048 1.165.285 1.402.604.605.289-.722.253-1.585-.079-1.917-.332-.332-.568.258-.525 1.312M5 237.758c.825.408 1.545 1.305 1.6 1.992.222 2.769.447 3.25 1.522 3.25.814 0 .804-.384-.035-1.395-.636-.767-1.029-1.978-.872-2.69.157-.713-.615-1.432-1.715-1.597-1.451-.218-1.588-.097-.5.44m39.75-.096c.688.278 1.813.278 2.5 0 .688-.277.125-.504-1.25-.504s-1.937.227-1.25.504m7.825 1.483c-1.059 1.02-1.509 1.848-1 1.84 1.63-.027 3.681-1.722 3.297-2.724-.205-.534-1.238-.136-2.297.884M105 238.059c0 .582.45.781 1 .441s1-.816 1-1.059-.45-.441-1-.441-1 .477-1 1.059m-94 1c0 .582.45.781 1 .441s1-.816 1-1.059-.45-.441-1-.441-1 .477-1 1.059m30.652.477c.539 1.404 3.337 2.809 4.091 2.054.792-.792-.635-2.328-2.653-2.856-1.32-.345-1.78-.089-1.438.802M84 239c-.825.533-1.05.969-.5.969s1.675-.436 2.5-.969c.825-.533 1.05-.969.5-.969s-1.675.436-2.5.969m-70.382 1.552c-.327.854.126 2.654 1.008 4 1.807 2.758 3.041 3.16 3.041.992 0-.801-.324-1.256-.72-1.011-1.232.761-3.015-2.193-2.357-3.906.343-.895.399-1.627.124-1.627s-.768.699-1.096 1.552M19 240c-.825.533-1.05.969-.5.969s1.675-.436 2.5-.969c.825-.533 1.05-.969.5-.969s-1.675.436-2.5.969m6.75.758c-.962.214-1.75.821-1.75 1.351 0 .593.736.568 1.919-.066 1.382-.739 2.031-.693 2.317.166.281.841.597.869 1.075.097.796-1.289-1.073-2.101-3.561-1.548m7.806 1.175c-1.63 1.806-1.672 2.049-.256 1.506 1.185-.455 1.968.052 2.63 1.706.639 1.595.964 1.817 1.007.688.034-.916.626-1.893 1.313-2.171.775-.313.613-.534-.427-.583-.922-.043-1.822-.804-2-1.689-.272-1.359-.627-1.274-2.267.543M48 240.882c0 .55.45 1.278 1 1.618.55.34 1 .168 1-.382s-.45-1.278-1-1.618c-.55-.34-1-.168-1 .382m32 .15c0 1.236 3.262 2.106 4.237 1.131.537-.537-.138-1.102-1.667-1.394-1.413-.271-2.57-.152-2.57.263m-23.271.572c-.401.401-.729 1.065-.729 1.474 0 .964 2.71.569 3.721-.543.428-.47.255-.556-.386-.189-.64.367-1.324.186-1.52-.402-.196-.588-.685-.741-1.086-.34M97.5 242c-.34.55-.168 1 .382 1s1.278-.45 1.618-1c.34-.55.168-1-.382-1s-1.278.45-1.618 1m-76.485 1.691c-.008 1.205.465 2.488 1.052 2.85 1.637 1.012 1.726.204.28-2.541-1.264-2.398-1.318-2.41-1.332-.309m67.015-1.141c-.035 1.225 2.009 3.45 3.17 3.45.44 0 .793-.787.785-1.75-.012-1.376-.201-1.457-.883-.38-.701 1.106-1.078 1.01-1.955-.5-.597-1.029-1.1-1.398-1.117-.82m-47.881 2.054c-.743.84-1.153 1.726-.91 1.968.242.242 1.257-.462 2.255-1.566.999-1.103 1.409-1.989.911-1.968-.498.021-1.513.726-2.256 1.566m24.866-1.054c-.008.577.523 1.588 1.181 2.246.929.929.761 1.55-.75 2.774-1.07.868-1.271 1.251-.446.852 2.695-1.305 5-3.702 5-5.199 0-1.223-.263-1.25-1.576-.16-1.307 1.084-1.732 1.063-2.485-.127-.5-.79-.915-.964-.924-.386m8.296 1.082c-.345.898-.074 2.517.6 3.598.675 1.081 1.084 2.07.908 2.199-.175.129-1.432.985-2.792 1.903-1.359.917-2.017 1.668-1.462 1.668.556 0 2.569-1.381 4.473-3.068 1.904-1.688 2.95-2.818 2.325-2.511-1.601.785-3.522-1.843-2.773-3.794.343-.895.337-1.627-.014-1.627-.352 0-.921.735-1.265 1.632m20.636-.351c1.162 1.534 1.086 1.992-.549 3.299-1.613 1.289-1.41 1.281 1.352-.057 3.104-1.504 4.741-4.309 1.872-3.208-.758.291-1.974.001-2.702-.643-1.041-.922-1.036-.792.027.609m-66.273.379c-.354.353.138 1.283 1.092 2.065.953.783 1.262 1.194.684.914-.577-.28-1.606.381-2.286 1.47-1.192 1.909-1.134 1.927 1.633.496 1.578-.816 2.87-2.186 2.87-3.044 0-.859-.221-1.34-.492-1.07-.27.271-1.024.049-1.675-.491s-1.473-.694-1.826-.34M43 246.941c0 .518.445 1.216.989 1.552.566.35.734-.051.393-.941-.665-1.732-1.382-2.049-1.382-.611m2.653.596c.324.846-.21 2.421-1.187 3.5-.978 1.082-1.268 1.963-.644 1.963 1.577 0 4.491-4.685 3.705-5.956-1.006-1.628-2.534-1.226-1.874.493m4.597-.37c.513 2.391 3.218 4.537 4.489 3.559.681-.524.963-1.4.625-1.946-.381-.617-.904-.524-1.38.245-.538.872-.966.606-1.442-.893-.696-2.193-2.74-3.054-2.292-.965m50.75-.774c0 .216.698.661 1.552.989.89.341 1.291.173.941-.393-.587-.951-2.493-1.406-2.493-.596m9.71 1.607c-.287 1.1-.115 2 .384 2 .498 0 .906-.9.906-2s-.173-2-.383-2c-.211 0-.619.9-.907 2m67.103-1.317c.721.289 1.584.253 1.916-.079.332-.332-.258-.568-1.312-.525-1.165.048-1.402.285-.604.604M12 247.729c-.825.314-1.838 1.066-2.25 1.671-.517.758-1.056.633-1.735-.4-.541-.825-.991-.993-1-.372-.008.62.607 1.644 1.368 2.275 1.067.885 1.517.799 1.969-.377.643-1.677 4.648-2.13 4.648-.526 0 .55-.562 1.029-1.25 1.063-.687.035-.238.471 1 .968 1.238.498 2.25 1.294 2.25 1.77s.675.866 1.5.866c1.686 0 2.036-2.218.5-3.167-.55-.34-1.002-.029-1.004.691-.002.72-.895-.154-1.985-1.941-1.09-1.787-2.101-3.214-2.246-3.171-.146.043-.94.336-1.765.65m133 .316c0 .376 2.088.969 4.64 1.319 5.411.742 10.894.837 10.235.178-.796-.796-14.875-2.213-14.875-1.497m-110.663 1.39c.303.79.013 1.654-.643 1.921-.831.338-.847.51-.055.565.627.043 2.202-.806 3.5-1.888 1.299-1.081 1.799-1.981 1.111-2-.687-.018-1.25.417-1.25.967s-.477 1-1.059 1-.781-.45-.441-1 .093-1-.548-1-.918.646-.615 1.435M84 249.059c0 .582.45.781 1 .441s1-.816 1-1.059-.45-.441-1-.441-1 .477-1 1.059m-3.397 1.348c.403 1.05-.061 2.259-1.228 3.196-1.774 1.426-1.757 1.45.319.447 3.044-1.471 3.54-2.611 1.772-4.078-1.264-1.049-1.406-.978-.863.435M88 251c.589 1.1 1.5 2 2.025 2 .526 0 .185-.9-.757-2s-1.853-2-2.025-2c-.173 0 .168.9.757 2m-29-.059c0 .518.445 1.216.989 1.552.566.35.734-.051.393-.941-.665-1.732-1.382-2.049-1.382-.611m-36.717 1.977c-1.083 1.735-.952 1.91 1.255 1.675 2.814-.3 4.609-1.593 2.212-1.593-.871 0-1.735-.454-1.92-1.01-.185-.555-.881-.138-1.547.928M141 251.969c0 .532.675.709 1.5.393.825-.317 1.5-.753 1.5-.969 0-.216-.675-.393-1.5-.393s-1.5.436-1.5.969m4.813-.286c.721.289 1.584.253 1.916-.079.332-.332-.258-.568-1.312-.525-1.165.048-1.402.285-.604.604M31 252.819c0 1.208 1.897 2.617 2.591 1.924.251-.252-.229-1.027-1.067-1.723-.95-.789-1.524-.865-1.524-.201m36.02.705c.696.838 1.471 1.318 1.723 1.067.693-.694-.716-2.591-1.924-2.591-.664 0-.588.574.201 1.524m28.544-.231c.376.986.935 1.541 1.243 1.233.308-.307.001-1.114-.683-1.793-.988-.98-1.102-.865-.56.56m53.946-.277c.346.559 1.047.758 1.559.441 1.387-.857 1.129-1.457-.628-1.457-.857 0-1.276.457-.931 1.016m3.49.484c0 1.683.183 1.751 2.418.893 2.235-.857 1.966-2.393-.418-2.393-1.111 0-2 .667-2 1.5M49 254c-.825.533-1.05.969-.5.969s1.675-.436 2.5-.969c.825-.533 1.05-.969.5-.969s-1.675.436-2.5.969m49 .059c0 .582.45.781 1 .441s1-.816 1-1.059-.45-.441-1-.441-1 .477-1 1.059m46.75.603c.688.278 1.813.278 2.5 0 .688-.277.125-.504-1.25-.504s-1.937.227-1.25.504" fill="#1976D2" fill-rule="evenodd"/><path fill-opacity=".177" d="M15 2.691c0 2.581.06 2.612 1.468.75.827-1.093 1.482-1.395 1.5-.691.018.688.98 1.25 2.139 1.25 1.51 0 1.935-.448 1.5-1.582-.334-.87-.607-1.77-.607-2C21 .188 19.65 0 18 0c-2.59 0-3 .368-3 2.691m15.039.983c.865 3.836 2.499 5.499 4.961 5.05.934-.17 1.415-1.208 1.275-2.749-.216-2.386-.186-2.377.834.275 1.448 3.765 3.165 3.449 5.43-1L44.764.88c.174-.341-3.252-.666-7.613-.723L29.223.054l.816 3.62m77.397 5.452c-3.398 6.768-4.874 8.836-5.71 8-1.702-1.702-2.393-1.365-2.305 1.124.06 1.712-.459 2.231-2.171 2.171-2.925-.104-2.849.401.237 1.574 2.843 1.081 3.015.312-3.248 14.505-4.328 9.809-10.112 25.669-12.673 34.75-.892 3.163-2.134 5.75-2.761 5.75-.626 0-.854.284-.507.631 1.287 1.288-1.445 4.564-3.384 4.057-1.155-.302-1.914.011-1.914.789 0 .709.958 1.54 2.13 1.847 1.475.385 1.936 1.062 1.5 2.198-.347.903-.63 2.28-.63 3.06C76 90.37 75.037 91 73.833 91c-1.191 0-1.887.279-1.546.62.341.341 2.212.321 4.158-.044 3.115-.584 3.851-1.345 6.158-6.37 5.478-11.93 6.214-13.811 6.856-17.534C91.236 57.377 106.637 21.25 116.07 5.25L119.165 0h-3.572c-3.501 0-3.665.183-8.157 9.126M177 2.107c0 1.535-.442 1.938-1.627 1.483-1.706-.655-4.373.955-4.373 2.639 0 .542.603.753 1.341.471.737-.283 1.975-.113 2.75.377 1.057.669.784.926-1.091 1.026-1.375.074-2.914.055-3.419-.041-.506-.096-.375.482.291 1.284.899 1.083.914 1.559.06 1.843-.728.243-.49.922.65 1.848 1.589 1.29 1.703 1.285.963-.037-.682-1.22-.587-1.267.508-.25 2.313 2.147 3.535 1.427 7.638-4.5 6.043-8.73 5.992-8.25.868-8.25C177.59 0 177 .272 177 2.107m19.705-.433c.483 1.258.235 1.517-.999 1.043-2.339-.897-2.957.713-1.835 4.776.837 3.032.705 3.664-.95 4.549-2.286 1.224-2.533 2.958-.421 2.958.825 0 1.5.45 1.5 1s-.787 1.007-1.75 1.015c-1.485.013-1.524.158-.258.959 1.188.751 1.238 1.196.25 2.184-.683.683-1.242.856-1.242.385 0-.472-1.067 1.126-2.371 3.55-2.106 3.914-2.207 4.596-.902 6.094.808.928 1.19 2.138.85 2.689-.341.55.178 1.465 1.152 2.032 1.036.604 1.238 1.044.486 1.062-.935.022-1.018.53-.306 1.86 1.061 1.983-.193 5.173-3.875 9.854-1.76 2.237-2.041 2.331-2.086.701-.03-1.117-.685-.357-1.606 1.865-.856 2.063-1.958 3.75-2.449 3.75-.491 0-.893.477-.893 1.059s.36.837.8.565c.44-.272 1.344.376 2.008 1.441.73 1.168.809 1.935.2 1.935-.554 0-1.008-.394-1.008-.875 0-1.691-6.347-4.082-7.748-2.919-.715.593-1.04 1.339-.722 1.658.318.318.997-.084 1.509-.893.512-.809.937-.995.946-.412.008.582-.592 1.888-1.333 2.902-1.307 1.788-1.407 1.786-3.333-.059-2.474-2.37-5.264-3.245-3.475-1.09 1.407 1.695-.784 11.835-2.695 12.472-.632.21-1.149.822-1.149 1.358 0 .537.45.698 1 .358 2.081-1.286.889 1.032-1.656 3.218-3.049 2.621-4.344 2.881-4.344.876 0-2.226-3.61-.746-4.857 1.991-1.131 2.482-3.321 3.401-2.776 1.165.168-.687.116-.91-.116-.494-.232.416-.851.491-1.376.166-.571-.352-.694.45-.307 1.994.503 2.005.275 2.584-1.019 2.584-.917 0-1.389-.45-1.049-1 .34-.55.135-1-.455-1-.649 0-.859 1.215-.532 3.076.324 1.838.156 2.838-.416 2.484-.527-.326-1.186-.225-1.463.224-.278.448.35 1.349 1.394 2.001 1.622 1.013 1.817.933 1.342-.55-.395-1.233-.018-1.079 1.305.533 1.023 1.248 3.203 2.454 4.843 2.682 1.64.228 7.482 1.394 12.982 2.592 5.5 1.198 11.463 2.209 13.25 2.247 1.787.039 3.25.426 3.25.862s-1.912.632-4.25.437c-10.164-.851-17.47-1.824-20.399-2.717-6.183-1.884-13.729-2.656-15.971-1.634-1.666.759-2.117 1.687-1.849 3.805.397 3.14 3.245 6.958 5.191 6.958.703 0 1.278.45 1.278 1s1.098 1 2.441 1c1.343 0 2.719.45 3.059 1 .34.55 1.876 1 3.413 1s3.913 1.036 5.28 2.303c1.94 1.798 2.863 2.072 4.209 1.25 1.357-.829 2.116-.575 3.571 1.197 1.777 2.164 6.793 3.298 5.527 1.25-.765-1.237-.005-1.274 2.264-.108 7.831 4.025 14.604 5.921 20.61 5.77 3.54-.089 6.228.176 5.972.588-.943 1.524.98.691 2.308-1 1.054-1.341 1.313-1.399 1.11-.25-.173.983.598 1.537 2.236 1.608 4.101.178 4.57.378 3.086 1.317-2.182 1.382-22.135.613-23.063-.888-.513-.831-.99-.899-1.42-.204-.439.711-1.683.618-3.875-.289-1.775-.734-5.372-1.621-7.992-1.969-2.62-.349-5.911-1.071-7.315-1.605-3.326-1.264-8.421-1.246-8.421.03 0 .55-.498 1-1.107 1s-.848-.675-.531-1.5c.35-.914.001-1.5-.893-1.5-.808 0-1.469.505-1.469 1.122 0 .791-.431.765-1.456-.086-.801-.664-1.814-.991-2.25-.726-.716.435-6.117-.278-13.518-1.785-1.498-.305-3.973-1.046-5.5-1.647-9.298-3.657-10.116-2.92-1.776 1.602 3.528 1.913 4.166 2.524 2.166 2.075-1.847-.414-2.61-.273-2.191.405.354.572.118 1.04-.523 1.04-.643 0-.899.696-.57 1.552.341.89.173 1.291-.393.941-.544-.336-.989-.188-.989.33s1.847.967 4.105.998c5.01.069 5.372.38 3.887 3.343-.909 1.815-.6 1.667 1.383-.664 1.404-1.65 2.584-3.45 2.621-4 .037-.55.623-.325 1.302.5s2.305 2.4 3.614 3.5l2.379 2-1.181-2.25c-1.414-2.696-1.191-2.733 3.356-.565 1.944.927 3.541 2.39 3.549 3.25.014 1.376.133 1.383.985.065.796-1.232.972-1.128.985.583.019 2.635 1.015 3.661 2.423 2.497.744-.615 1.127.047 1.202 2.079l.11 2.983-4.148-4.071c-4.639-4.553-5.872-4.904-7.765-2.213-.719 1.022-3.032 3.765-5.141 6.095l-3.834 4.238-2.23-2.095c-1.227-1.153-2.801-2.096-3.498-2.096-.856 0-.553-1.216.936-3.75l2.204-3.75-2.377 2.811-2.376 2.811-4.241-1.899c-2.333-1.044-4.062-2.084-3.842-2.311.219-.226-1.921-.528-4.755-.67-2.834-.142-5.269-.603-5.412-1.026-.406-1.206-11.171-.335-17.241 1.394-11.072 3.154-16.186 8.659-20.158 21.702-1.667 5.474-2.396 6.688-3.708 6.18-.899-.347-2.984-.838-4.634-1.089-2.78-.423-2.828-.381-.658.572 1.289.566 3.989 1.231 6 1.477 2.21.271 4.201 1.26 5.03 2.498.755 1.128 2.442 2.05 3.75 2.05 1.308 0 2.378.373 2.378.829 0 .457 1.013.794 2.25.75 1.675-.059 2.223.457 2.143 2.02-.154 3.015 3.049 4.816 5.034 2.831 1.178-1.178 1.988-1.279 3.549-.443 1.113.596 2.024.827 2.024.513 0-.314 1.013-.014 2.25.667 1.237.68 2.924 1.348 3.749 1.483.824.135 2.286 1.219 3.25 2.409.963 1.189 1.751 1.642 1.751 1.005 0-.702.959-.45 2.435.639l2.435 1.797-2.685 1.205c-2.515 1.129-2.543 1.208-.435 1.25 1.237.025 3.099-.804 4.137-1.842 1.038-1.038 2.685-2.334 3.66-2.879 1.649-.923 1.622-1.073-.387-2.148-1.411-.756-2.16-.797-2.16-.121 0 .569-.477 1.035-1.059 1.035s-.781-.45-.441-1c.57-.922.16-1.103-3.184-1.415-.652-.061-2.339-1.114-3.75-2.341-1.781-1.549-2.566-1.807-2.566-.844 0 .762-.675 1.645-1.5 1.962-.825.316-1.5.139-1.5-.393 0-.533.477-.969 1.059-.969s.776-.457.431-1.016c-.346-.559-1.016-.777-1.49-.484-.474.293-1.158.053-1.52-.532-.458-.741-1.088-.708-2.069.106-1.12.929-1.411.824-1.411-.511 0-.924-.419-1.422-.931-1.106-.512.317-1.243.07-1.625-.547-.495-.801-.928-.745-1.508.193-.652 1.056-1.189.978-2.704-.393-1.039-.94-2.922-1.71-4.183-1.71-1.956 0-2.105-.228-1.011-1.546.705-.85 1.95-1.289 2.767-.975.816.313 2.322-.189 3.346-1.115 2.293-2.075 3.655-1.055 1.742 1.304-.787.969-.876 1.405-.204 1.003.662-.397 1.597.017 2.111.936.601 1.073 1.158 1.271 1.594.565.368-.597 1.235-.868 1.926-.603.691.266 2.581-.9 4.201-2.591 2.457-2.565 2.699-3.228 1.461-4.01-2.119-1.34-2.982-1.186-2.982.532 0 2.487-.308 2.947-2.854 4.268-3.329 1.727-3.795.887-.81-1.46 2.173-1.709 2.302-2.182 1.175-4.287l-1.266-2.367-.69 2.173c-.763 2.404-2.555 2.962-2.555.795 0-1.81 1.834-3.187 5.376-4.035 2.348-.562 2.767-.403 2.282.862-.654 1.703.852 2.153 1.842.551 1.118-1.809 2.648-1.043 2 1-.721 2.272 1.331 2.769 3.3.8.66-.66 1.168-.772 1.128-.25-.04.522-2.257 2.75-4.928 4.95s-4.888 4.388-4.928 4.861c-.04.474 1.51.565 3.442.202 3.047-.571 3.638-.353 4.437 1.639.507 1.264.951 1.999.986 1.634.034-.365 2.221.125 4.858 1.089 2.637.964 5.597 1.635 6.577 1.491 1.186-.174 1.6.214 1.237 1.161-.301.783-.143 1.423.349 1.423 1.714 0 1.622-3.507-.119-4.512-1.259-.727-1.483-1.43-.795-2.5.769-1.196 1.121-1.233 1.798-.185.463.716 1.475 1.166 2.25 1 .856-.184 1.345.432 1.248 1.574-.196 2.301 8.53-6.061 15.284-14.646l4.538-5.769-3.615-3.615c-4.071-4.071-4.275-3.369 3.373-11.597 4.386-4.718 5.397-4.752 3.46-.116-1.387 3.319-1.378 3.579.103 3.011.944-.362 1.366-.209 1.01.366-.336.544-1.372 1.003-2.302 1.021-1.531.029-1.541.147-.105 1.25 1.44 1.105 1.423 1.389-.18 3.069-.972 1.019-1.703 2.69-1.626 3.715.157 2.089.561 1.847 7.455-4.467 1.779-1.629 3.545-2.653 3.923-2.274.378.378-1.169 2.277-3.439 4.22-4.009 3.431-4.764 6.455-1.612 6.455 1.601 0 1.899 3.569.377 4.51-.56.346-2.178.839-3.596 1.096-1.815.329-2.44.086-2.109-.819.259-.708.866-1.212 1.349-1.119.483.092.896-1.152.918-2.764.021-1.615-.43-2.768-1.004-2.567-.573.201-1.009 1.31-.968 2.464.041 1.155-.246 1.902-.637 1.66-1.067-.66-2.697 1.715-3.115 4.539-.208 1.411-.941 2.379-1.682 2.221-.722-.153-1.551.635-1.843 1.75-.292 1.116-1.057 2.029-1.701 2.029-.644 0-3.382 2.244-6.084 4.988l-4.912 4.987 3.328-.954c4.455-1.278 9.568-1.461 15.322-.548 4.912.78 6.09-.116 3.25-2.473-1.917-1.591-1.901-2.632.052-3.382.89-.341 1.291-.173.941.393-.336.544.224.989 1.244.989 1.37 0 1.843.72 1.805 2.75-.043 2.288.537 2.932 3.453 3.834 2.249.695 3.953.741 4.755.127.806-.616 1.25-.598 1.25.051 0 1.434 9.919 4.497 11.872 3.667.895-.381 2.978-.86 4.628-1.066 1.65-.205 10.139-1.743 18.864-3.417 8.726-1.673 18.761-3.313 22.302-3.644 5.716-.534 6.595-.907 7.851-3.334.796-1.54 2.623-3.037 4.185-3.429 1.524-.383 5.795-3.139 9.492-6.126 3.696-2.986 7.905-5.88 9.353-6.431 2.568-.976 2.551-.914-.677 2.508-1.82 1.931-4.111 3.51-5.09 3.51-.979 0-1.78.702-1.78 1.559s-.403 1.31-.895 1.006c-.493-.305-1.132.063-1.421.816-.314.818.53 1.851 2.093 2.563 2.104.959 2.334 1.374 1.171 2.109-.796.504-2.911.923-4.698.932-1.787.008-3.25.437-3.25.954 0 .865 2.855 1.458 12 2.492 4.84.547 6.806 1.456 7.36 3.404.748 2.626.342-111.028-.443-123.835-.501-8.195-1.482-13.943-3.41-20-2.871-9.013-7.226-18-8.725-18-.495 0-.579-.52-.187-1.155.454-.733.274-.882-.493-.408-.784.484-1.616-.338-2.374-2.346C239.648.23 239.206 0 234.781 0c-5.786 0-6.077 1.205-1.456 6.029 1.828 1.909 3.639 4.323 4.023 5.364.385 1.041.974 1.618 1.311 1.281.337-.336-.16-1.79-1.103-3.23-.944-1.439-1.516-2.818-1.271-3.062 1.091-1.092 3.843 4.973 3.277 7.225-.358 1.43.202 4.356 1.37 7.156 3.407 8.162 5.237 14.899 4.856 17.872l-.368 2.865-1.628-3.5c-1.211-2.602-1.659-2.987-1.747-1.5-.064 1.1-1.001-.458-2.081-3.462-2.177-6.055-2.411-7.278-.964-5.038.533.825.976 1 .985.39.008-.611-1.11-2.769-2.485-4.795-1.375-2.026-2.509-4.226-2.519-4.889-.011-.663-2.384-5.031-5.274-9.706-5.008-8.101-5.439-8.515-9.163-8.821-3.53-.29-3.775-.163-2.54 1.326 1.16 1.398 1.15 1.788-.068 2.571-1.198.771-1.211 1.069-.079 1.799 1.044.673 1.076 1.049.138 1.628-.67.414-1.506.358-1.857-.125s-2.213-.842-4.138-.797c-4.297.099-6-1.094-6-4.203C206 .193 205.596 0 201.031 0c-4.234 0-4.873.247-4.326 1.674M207.5 1c.34.55 1.491 1 2.559 1S212 1.55 212 1s-1.152-1-2.559-1c-1.451 0-2.292.433-1.941 1M234 4c0 .55.477 1 1.059 1s.781-.45.441-1-.816-1-1.059-1-.441.45-.441 1M39 6.059c0 .582.45.781 1 .441s1-.816 1-1.059S40.55 5 40 5s-1 .477-1 1.059M4 7c0 .55.45 1 1 1s1-.45 1-1-.45-1-1-1-1 .45-1 1m216.188.063c.24.721 1.028 1.509 1.75 1.75.75.25 1.125-.125.875-.875-.241-.722-1.029-1.51-1.75-1.75-.75-.25-1.125.125-.875.875M34 11c0 .55.45 1 1 1s1-.45 1-1-.45-1-1-1-1 .45-1 1m-2 4.5c0 .825.395 1.5.878 1.5.482 0 1.437-.675 2.122-1.5 1.04-1.253.896-1.5-.878-1.5-1.22 0-2.122.638-2.122 1.5m141.543.431c-.683 1.105.894 2.299 1.818 1.375.95-.951.773-2.306-.302-2.306-.518 0-1.2.419-1.516.931m38.744 1.699c-1.182 2.546-1.163 2.568.726.858 1.067-.965 1.699-2.145 1.404-2.622-.74-1.197-.766-1.176-2.13 1.764m8.471-.054c-.861.86.973 4.424 2.277 4.424 1.328 0 1.208-1.285-.312-3.365-.703-.961-1.587-1.437-1.965-1.059M31.229 19.187C31.727 20.682 34 21.505 34 20.19c0-.537-.713-1.249-1.584-1.584-.973-.373-1.431-.15-1.187.581M168 19.559c0 .857.457 1.276 1.016.931.559-.346.758-1.047.441-1.559-.857-1.387-1.457-1.129-1.457.628M0 25.402c0 1.698 1.633 3.008 2.326 1.864.255-.421-.164-1.346-.931-2.055C.249 24.151 0 24.186 0 25.402m190.02.074c-.789.95-.865 1.524-.201 1.524 1.208 0 2.617-1.897 1.924-2.591-.252-.251-1.027.229-1.723 1.067m-161.574.611c-.369.598-.171 1.588.441 2.2.817.817 1.113.528 1.113-1.087 0-2.415-.519-2.787-1.554-1.113M210 29c0 .55.45 1 1 1s1-.45 1-1-.45-1-1-1-1 .45-1 1M20 31.648c0 1.148 6.925 3.282 7.521 2.318.256-.414-.615-1.024-1.935-1.355-1.32-.331-3.117-.878-3.993-1.214-.876-.336-1.593-.223-1.593.251m171.397.519c-.748 1.211.49 2.833 2.162 2.833.793 0 1.441-.825 1.441-1.833 0-1.837-2.634-2.568-3.603-1m-175.864 3.73C14.753 38.353 8.487 45 6.951 45c-.679 0-.968.826-.678 1.935.431 1.65-1.631 3.635-3.161 3.044-1.666-.643-2.013 9.657-2.081 61.742-.051 39.78.26 59.279.946 59.279.563 0 1.023-.399 1.023-.886 0-1.499 7.217-8.153 12.75-11.757 2.887-1.88 5.25-3.673 5.25-3.983 0-.311-.841-1.76-1.869-3.22-1.028-1.46-2.188-3.779-2.578-5.154-.492-1.733.215-1.143 2.306 1.921 3.469 5.086 4.653 5.365 16.141 3.793 7.919-1.083 10.288-2.611 9.802-6.32-.153-1.164.221-2.741.83-3.505 2.269-2.846 3.365-8.677 3.271-17.401-.108-10-.925-12.556-3.777-11.811-1.045.274-2.203.008-2.572-.59-.401-.648.159-1.087 1.387-1.087 3.111 0 2.497-2.221-2.04-7.375-5.742-6.523-11.637-9.828-15.982-8.959-4.217.844-9.547 3.922-10.332 5.968-.325.847-1.107 7.914-1.738 15.704-1.008 12.452-.947 14.845.502 19.816 1.906 6.536 1.978 7.168.73 6.396-1.01-.624-3.006-8.799-3.662-14.994-.262-2.475-1.389-4.959-3.027-6.669-1.436-1.498-2.329-3.18-1.985-3.737a1.196 1.196 0 00-.391-1.64C5.457 115.165 5 114.178 5 113.319c0-1.342.236-1.369 1.657-.191 1.512 1.252 1.611.964 1.132-3.296-.39-3.467-.206-4.545.716-4.192.86.33 1.087-.321.742-2.13-.344-1.797.084-3.047 1.377-4.026 1.67-1.264 1.69-1.424.185-1.452-2.61-.049-3.081-1.759-1.317-4.78 2.651-4.539 7.316-25.372 6.306-28.164-1.397-3.866.153-10.751 3.317-14.732 3.318-4.176 3.936-9.309 1.135-9.435-1.385-.062-1.437-.194-.25-.63 2.105-.775 5-3.416 5-4.563 0-.528-1.136-.744-2.524-.479-1.388.266-2.765.093-3.059-.383-.949-1.536-3.265-.921-3.884 1.031M193 38.26c0 1.145.708 2.865 1.573 3.821 1.44 1.59 1.41 1.79-.348 2.348-2.307.732-4.949 5.83-3.305 6.378 1.339.446 1.439 3.193.115 3.193-.53 0-1.446.9-2.035 2-.905 1.691-.76 2 .933 2 1.377 0 1.823-.473 1.424-1.511-.415-1.082-.121-1.336 1.032-.893.886.34 1.611.137 1.611-.45s.835-1.873 1.856-2.857c2.448-2.359 3.449-7.867 1.932-10.621-.658-1.192-1.216-2.799-1.242-3.57-.078-2.369-3.546-2.211-3.546.162m23.328.233c-2.556 2.737-2.346 4.978.627 6.675 2.917 1.666 2.923 1.663 3.558-1.227 1.156-5.262-1.332-8.501-4.185-5.448m-16.661 1.174c-.367.366-.667 1.131-.667 1.7 0 .626.466.567 1.183-.15.651-.651.951-1.416.667-1.7-.284-.284-.817-.217-1.183.15m42.333.715c0 .825.45 1.778 1 2.118.55.34 1-.057 1-.882s-.45-1.778-1-2.118c-.55-.34-1 .057-1 .882m7.004 4.611c-1.125 2.102-.503 4.434.944 3.539 1.239-.765 1.975-4.461 1.008-5.059-.47-.291-1.349.393-1.952 1.52m-6.366.507c.317.825.705 1.5.862 1.5.157 0 .545-.675.862-1.5.347-.905.005-1.5-.862-1.5s-1.209.595-.862 1.5m1.923 16.5C245.22 74.689 246 80.584 246 72.867c0-1.907.531-3.998 1.18-4.647.906-.906.859-1.779-.204-3.765-1.189-2.222-1.179-2.714.07-3.505.8-.506.976-.926.391-.935-.585-.008-1.173-2.153-1.306-4.765-.134-2.612-.699-5.2-1.257-5.75-.684-.675-.786 3.383-.313 12.5m-35.828-10.876c.679.684 1.486.991 1.793.683.308-.308-.247-.867-1.233-1.243-1.425-.542-1.54-.428-.56.56m-2.654 1.567c-.123 1.856 1.967 2.673 3.258 1.275.908-.984.793-1.131-.522-.669-.927.325-1.904.053-2.171-.603-.375-.921-.504-.921-.565-.003M183 55.819c0 1.208 1.897 2.617 2.591 1.924.251-.252-.229-1.027-1.067-1.723-.95-.789-1.524-.865-1.524-.201m-7.83 3.281c-1.471 2.355-1.493 3.217-.058 2.331.611-.378 1.511-.067 2 .691.754 1.17 1.023 1.169 1.78-.006 1.263-1.961.71-4.41-1.055-4.669-.824-.121-2.024.623-2.667 1.653M208 58c0 .55.45 1 1 1s1-.45 1-1-.45-1-1-1-1 .45-1 1m-26.148 4.212c-2.201 2.255-2.414 2.907-1.262 3.863 1.075.892 1.525.788 2.005-.462.341-.887 1.246-1.613 2.012-1.613 1.505 0 1.632-.663.573-3-.553-1.219-1.175-.993-3.328 1.212m22.501-2.07c-.589.747-1.164 3.158-1.278 5.358-.324 6.273-.647 8.406-1.388 9.146-.378.378-.687 1.102-.687 1.61 0 .507 1.385-.243 3.077-1.667S207.989 72 209.009 72c2.412 0 3.326-3.056 2.456-8.21-.551-3.258-.894-3.775-1.631-2.458-1.252 2.238-2.335 2.101-3.469-.44-.764-1.713-1.141-1.854-2.012-.75M187.5 61c-.34.55-.141 1 .441 1S189 61.55 189 61s-.198-1-.441-1-.719.45-1.059 1M6.657 65.442c-3.122 2.893-3.314 3.542-.857 2.9 1.787-.467 4.716-4.159 3.926-4.949-.227-.227-1.608.695-3.069 2.049m208.561-.465c.695 1.113 1.605 2.023 2.023 2.023 1.443 0 .752-1.524-1.264-2.782-1.876-1.172-1.931-1.117-.759.759m-28.551-.31c-.367.366-.667 1.131-.667 1.7 0 .626.466.567 1.183-.15.651-.651.951-1.416.667-1.7-.284-.284-.817-.217-1.183.15M168 65.882c0 .55.45 1.278 1 1.618.55.34 1 .168 1-.382s-.45-1.278-1-1.618c-.55-.34-1-.168-1 .382M43.256 67.437c-1.234.683-1.947 1.539-1.583 1.902 1.152 1.153 2.224.722 3.327-1.339.589-1.1.942-1.956.785-1.902-.157.054-1.295.657-2.529 1.339m170.228.856c-.789 1.936-.173 3.131 1.319 2.561.511-.195.587-1.254.17-2.354-.707-1.865-.808-1.879-1.489-.207m-138.86 3.246c-.343.893-.585 2.375-.538 3.293.047.917.482.341.967-1.282.943-3.156.609-4.718-.429-2.011m-52.423 2.033c-4.268 2.989-1.927 5.923 3.81 4.776 3.592-.719 3.695-1.336.69-4.159-2.119-1.991-2.47-2.039-4.5-.617m183.418 1.235c-.739 1.197-.213 3.646.864 4.017 1.046.361 2.513-2.899 1.833-4.074-.572-.989-2.07-.957-2.697.057m-16.227 3.766c-.355 1.415-.229 2.99.281 3.5.569.569.927-.424.927-2.573 0-4.162-.332-4.416-1.208-.927m62.41-2.041c-.615.615-.047 6.556.698 7.301.275.275.5-1.375.5-3.666 0-4.134-.174-4.66-1.198-3.635M40.07 83.183c.039.724.457 2.217.93 3.317.815 1.896.863 1.881.93-.289l.07-2.289 2.25 2.124c1.237 1.168 3.487 2.772 5 3.565 1.513.792 2.75 1.879 2.75 2.415s.675.974 1.5.974c2.031 0 1.839-1.012-.786-4.131-3.423-4.067-12.782-8.276-12.644-5.686m205.009.4c.048 1.165.285 1.402.604.605.289-.722.253-1.585-.079-1.917-.332-.332-.568.258-.525 1.312m-98.465 1.854c.303.79 1.187 1.193 1.963.895 1.689-.648.891-2.332-1.105-2.332-.814 0-1.176.607-.858 1.437m50.386.941c0 1.759 2.818 4.137 3.773 3.183.398-.399-.056-1.295-1.009-1.992-.953-.697-1.44-1.56-1.082-1.918.358-.358.126-.651-.515-.651-.642 0-1.167.62-1.167 1.378m47.618 3.964c-.422 2.663-.538 5.071-.257 5.352.729.729 1.902-6.135 1.425-8.344-.22-1.018-.745.329-1.168 2.992M54.479 88.976c.983 1.087 2.173 1.739 2.643 1.448.47-.29.605.125.298.923-.306.798.037 1.827.762 2.287 1.295.821 1.819.991 3.818 1.241.55.069 1.969 1.094 3.153 2.278s3.546 2.25 5.25 2.369c1.703.12 5.672.889 8.818 1.71 3.147.82 5.959 1.254 6.25.963.291-.29.529.172.529 1.028 0 1.209.84 1.462 3.75 1.131 9.736-1.108 11.075-2.741 3.029-3.694-5.266-.623-14.838-3.554-15.798-4.837-.285-.381-1.635-.866-3-1.078-1.364-.212-4.268-1.16-6.452-2.107-2.183-.946-5.896-2.205-8.25-2.798C56.926 89.247 55 88.366 55 87.881c0-.484-.52-.881-1.155-.881-.66 0-.388.848.634 1.976M137 87.383c0 .888 4.046 1.352 4.558.523.308-.498-.592-.906-1.999-.906s-2.559.173-2.559.383M152 88c0 .55.477 1 1.059 1s.781-.45.441-1-.816-1-1.059-1-.441.45-.441 1m-25 3.241c0 2.858-1.727 4.759-4.322 4.759-1.596 0-1.711.255-.678 1.5 1.626 1.959 6.435 1.923 8.421-.064 1.395-1.395 1.403-1.875.079-4.437-2.011-3.887-3.5-4.636-3.5-1.758M49.772 94.25c-.39.963-1.398 1.75-2.241 1.75-2.045 0-1.954 1.624.136 2.426 2.231.856 3.579-.664 3.159-3.561-.291-1.999-.454-2.094-1.054-.615m90.895 1.417c-.367.366-.667 1.131-.667 1.7 0 .626.466.567 1.183-.15.651-.651.951-1.416.667-1.7-.284-.284-.817-.217-1.183.15m42.917 2.317c.516.516 2.508 1.167 4.427 1.447 1.919.28 5.289.962 7.489 1.515 5.263 1.324 12.806 1.358 12 .054-.34-.55-2.391-1-4.559-1S199 99.651 199 99.224c0-.428-1.912-.792-4.25-.811-2.338-.019-6.017-.334-8.177-.701-2.444-.414-3.573-.312-2.989.272M63.08 102c1.458 3.061 1.92 3.628 1.92 2.358 0-.537-.7-1.849-1.555-2.917-1.467-1.83-1.487-1.798-.365.559m107.619 1.019c-.778 1.111-1.199 3.146-.936 4.522.409 2.137.711 2.317 2.065 1.231 3.591-2.881 4.678-4.385 4.36-6.033-.455-2.365-3.754-2.197-5.489.28m41.114-1.336c.721.289 1.584.253 1.916-.079.332-.332-.258-.568-1.312-.525-1.165.048-1.402.285-.604.604m-113.565 3.091c-2.088.339-2.132.485-.609 2.008 2.114 2.114 4.361 2.438 4.361.63 0-.777.387-1.412.861-1.412 1 0 .665 6.34-.429 8.11-.469.759-.317.937.413.485.635-.392 1.155-.185 1.155.459 0 .734-1.122 1.008-2.998.733-2.807-.412-2.896-.328-1.406 1.319 2.646 2.923 5.93.966 5.793-3.452-.1-3.245.07-3.479 1.836-2.534 2.823 1.511 3.279.384.833-2.062l-2.109-2.109 2.776.666c4.665 1.12 2.099-.319-3.225-1.809-2.75-.769-6.013-1.234-7.252-1.032M116 106.393c0 .216.698.661 1.552.989.89.341 1.291.173.941-.393-.587-.951-2.493-1.406-2.493-.596M19 109c-.793.49-1.11 1.223-.704 1.629.405.406 1.262.213 1.904-.429 1.511-1.511.668-2.354-1.2-1.2m47.571 1c.359 1.375 1.053 2.927 1.541 3.45 1.428 1.527.99-.664-.689-3.45l-1.506-2.5.654 2.5M95 109c-.901.582-1.025.975-.309.985.655.008 1.469-.435 1.809-.985.767-1.242.421-1.242-1.5 0m119.323.601c-.314.817-.402 1.638-.197 1.826.638.58 4.874-1.316 4.874-2.182 0-1.477-4.093-1.165-4.677.356m33.677-.542c0 .582.45.781 1 .441s1-.816 1-1.059-.45-.441-1-.441-1 .477-1 1.059M25 110c0 .55.423 1 .941 1s1.219-.45 1.559-1c.34-.55-.084-1-.941-1S25 109.45 25 110m89 .375c0 .756-.237 2.894-.527 4.75-.385 2.466-.29 2.836.352 1.375 1.641-3.738 2.24-7.5 1.194-7.5-.56 0-1.019.619-1.019 1.375m8.747 2.875c3.546 2.479 4.027 3.417 1.753 3.417-.825 0-1.5-.375-1.5-.834 0-.458-.713-.833-1.583-.833-1.783 0-1.397 2.431.416 2.625.642.069 1.617.181 2.167.25.55.069 1 .9 1 1.848 0 1.507.17 1.476 1.365-.25 1.509-2.18 3.298-7.364 2.178-6.308-.389.366-2.23.028-4.092-.75-4.846-2.025-5.404-1.751-1.704.835M40 117c0 .55.477 1 1.059 1s.781-.45.441-1-.816-1-1.059-1-.441.45-.441 1m212 0c-1.293.835-1.266.971.191.985.93.008 1.969-.435 2.309-.985.782-1.266-.542-1.266-2.5 0m-115 2.559c0 .857.457 1.276 1.016.931.559-.346.758-1.047.441-1.559-.857-1.387-1.457-1.129-1.457.628m28.418-.334c.149.707 1.277 1.127 2.534.944 1.431-.21 2.02.067 1.598.75-.43.697.508 1.052 2.641 1l3.309-.081-3.982-1.853c-2.622-1.221-4.202-1.496-4.629-.806-.439.711-.822.682-1.193-.091-.342-.713-.446-.662-.278.137m-97.831 3.285c-.516 2.056-1.143 2.578-2.632 2.188-2.442-.638-2.568.903-.179 2.182 3.594 1.924 6.642-2.095 4.341-5.725-.626-.988-1.032-.629-1.53 1.355M6.5 122c.34.55.816 1 1.059 1s.441-.45.441-1-.477-1-1.059-1-.781.45-.441 1m212.313-.317c.721.289 1.584.253 1.916-.079.332-.332-.258-.568-1.312-.525-1.165.048-1.402.285-.604.604M42 126c0 .55.45 1 1 1s1 .675 1 1.5.45 1.5 1 1.5c1.267 0 1.259-.647-.035-3.066C43.873 124.895 42 124.304 42 126m121 10.566c0 .311.466 1.436 1.035 2.5 1.086 2.029 4.965 2.706 4.965.867 0-.613-.853-.797-2-.433-1.845.586-2.509-.276-2.118-2.75.065-.412-.332-.75-.882-.75s-1 .255-1 .566m90.563 5.364c-1.676 1.853-1.663 1.909.345 1.384 1.151-.301 2.092-1.17 2.092-1.931 0-1.83-.359-1.749-2.437.547m-99.896-.263c-.956.955-.822 2.333.226 2.333.491 0 1.152-.675 1.469-1.5.585-1.524-.481-2.048-1.695-.833M7 143.378c0 .207.787.995 1.75 1.75 1.586 1.243 1.621 1.208.378-.378C7.821 143.084 7 142.555 7 143.378m33.816 1.015c-2.052 1.5-.837 3.936 1.514 3.034 1.833-.704 2.016-1.334.898-3.092-.56-.88-1.148-.866-2.412.058m115.934.999c-.963.731-1.75 2.291-1.75 3.468 0 4.039 7.028 1.424 7.682-2.858.23-1.506-.251-1.994-1.938-1.97-1.234.017-3.031.629-3.994 1.36m-78.937 1.291c.721.289 1.584.253 1.916-.079.332-.332-.258-.568-1.312-.525-1.165.048-1.402.285-.604.604m-28 5c.721.289 1.584.253 1.916-.079.332-.332-.258-.568-1.312-.525-1.165.048-1.402.285-.604.604M251.5 152c-.34.55-.254 1.034.191 1.077.445.042 1.596.227 2.559.411 2.182.418 2.314-1.058.168-1.881-2.074-.796-2.193-.78-2.918.393m-195.75.662c.688.278 1.813.278 2.5 0 .688-.277.125-.504-1.25-.504s-1.937.227-1.25.504M75 153c0 .55.45 1 1 1s1-.45 1-1-.45-1-1-1-1 .45-1 1m78 .572c0 1.152.522 1.442 1.75.973 1.258-.481 1.099-.061-.566 1.494-1.274 1.189-2.099 2.379-1.833 2.645.476.476 4.649-3.247 4.649-4.149 0-.255-.9-.946-2-1.535-1.623-.868-2-.76-2 .572m100 1.821c0 .216.675.652 1.5.969.825.316 1.5.139 1.5-.393 0-.533-.675-.969-1.5-.969s-1.5.177-1.5.393M83.128 156.9c-.754.478-1.193 1.405-.974 2.061.256.77 1.062.457 2.277-.884 1.909-2.11 1.192-2.758-1.303-1.177m26.372.1c-.34.55-.141 1 .441 1s1.059-.45 1.059-1-.198-1-.441-1-.719.45-1.059 1m45.023 3.25c-.283 1.238-.326 3.15-.095 4.25.23 1.1.453 2.637.495 3.417.043.779.396 1.097.786.707s.581-2.49.424-4.667c-.169-2.336.155-3.957.791-3.957.592 0 1.076-.45 1.076-1 0-2.006-2.977-.936-3.477 1.25m94.508-.362l-2.47.688 2.97 1.118c6.358 2.395 6.469 2.391 6.469-.225 0-2.627-1.773-3.03-6.969-1.581m-203.781.801c.962.252 2.538.252 3.5 0 .962-.251.175-.457-1.75-.457s-2.712.206-1.75.457M162 163c0 .55.423 1 .941 1s1.219-.45 1.559-1c.34-.55-.084-1-.941-1s-1.559.45-1.559 1m-130.331 1.235c-.643.404-2.013.741-3.045.75-2.589.021-19.342 6.811-21.839 8.851C-.046 179.418 0 179.303 0 190.604c0 8.121.285 10.353 1.25 9.808 1-.564 1-.436 0 .641-1.521 1.639-1.773 25.505-.279 26.429.533.33 2.446-.116 4.25-.991l3.279-1.59-2.361 2.05C4.841 228.078 3.153 229 2.389 229c-.764 0-1.389.477-1.389 1.059s.453.779 1.007.437c1.8-1.113 2.188 2.277.547 4.781l-1.597 2.438 3.521-1.102c1.937-.606 3.522-1.49 3.522-1.965 0-.474-.675-.603-1.5-.286-1.975.758-1.899.307.606-3.588 1.159-1.801 1.848-2.487 1.532-1.524-.622 1.892 1.769 2.518 2.862.75.34-.55 1.806-1 3.259-1 2.054 0 2.374-.267 1.441-1.2-1.645-1.645-1.523-3.313.142-1.931.738.612 1.638.818 2 .456.362-.362.658-.159.658.452 0 .61-.985 1.8-2.19 2.643-1.204.844-1.962 1.762-1.684 2.04.916.915 6.924-1.888 6.486-3.027-.235-.613-.025-1.749.465-2.524.721-1.138.895-1.072.908.341.008.963.352 1.697.765 1.632 2.166-.342 2.11.34-.193 2.368-1.737 1.529-2.278 2.681-1.688 3.595.644.999 1.034.678 1.518-1.25.427-1.701 1.334-2.595 2.632-2.595 1.364 0 2.006-.7 2.06-2.25.043-1.238.306-1.687.583-1 .718 1.779 2.098 1.552 4.57-.751 1.437-1.339 2.374-1.636 2.831-.897.496.803 1.263.794 2.81-.034 1.74-.931 2.127-.859 2.127.397 0 1.727 1.557 2.06 2.5.535 1-1.619 3.507-1.181 2.862.5-.317.825-.115 1.5.449 1.5.564 0 1.704.261 2.534.579 1.154.443 1.388.03.995-1.75-.301-1.364-.167-1.873.323-1.229.46.605 1.46 1.3 2.221 1.545 1.126.361 1.08.749-.25 2.078-2.337 2.337-2.131 4.104.301 2.585 1.065-.664 1.745-1.517 1.511-1.895-.233-.378.358-.625 1.315-.55 1.208.095 1.838-.726 2.063-2.688.292-2.553.13-2.721-1.69-1.747-1.331.713-2.222.738-2.632.075-.341-.552.082-1.003.939-1.003s1.56-.338 1.561-.75c.001-.412 1.351-.844 3-.96 3.315-.232 4.284 2.172 1.248 3.095-.963.293-.4.368 1.25.167 1.65-.201 4.032-.69 5.293-1.086 1.666-.524 2.212-.351 2 .632-.167.772.722 1.508 2.068 1.712 1.561.237 2.125-.024 1.664-.77-.383-.62-.265-1.67.263-2.334 2.249-2.823 1.962-8.038-.682-12.416-1.433-2.373-3.315-4.539-4.181-4.814-1.114-.353-1.447-1.374-1.137-3.488.257-1.747-.011-2.988-.643-2.988-.599 0-.797.744-.444 1.664.411 1.071.246 1.422-.462.984-.605-.374-1.383-.223-1.729.336-.345.559-.023 1.016.717 1.016.739 0 1.344.864 1.344 1.921 0 1.473-.383 1.715-1.648 1.038-.906-.485-3.172-1.148-5.035-1.473-3.199-.557-3.276-.505-1.388.93 1.1.836 2.9 1.542 4 1.568 1.1.025 2.675.526 3.5 1.112 1.521 1.081.284.947-6.5-.704-1.496-.364-2.5-.176-2.5.468 0 .593-.701.808-1.557.48-.857-.329-1.35-1.141-1.095-1.805.354-.921-.448-.964-3.383-.18-2.116.565-3.622 1.391-3.347 1.836.711 1.151-.4 1.002-2.934-.395-1.201-.662-2.808-1.224-3.572-1.25-.763-.025-1.888-.893-2.5-1.929-.611-1.036-2.125-2.928-3.362-4.205-2.886-2.978-3.027-4.898-.25-3.412 1.596.854 2 .76 2-.465 0-.844.477-1.535 1.059-1.535s.781-.45.441-1c-.981-1.587.652-1.163 2.886.75 1.124.963.755.175-.819-1.75-2.38-2.91-2.585-3.554-1.215-3.823 1.771-.348 2.228-1.797.74-2.344-.5-.183-1.063-1.233-1.25-2.333-.188-1.1-.567-2.225-.842-2.5-2.123-2.123-4.978-7.227-4.487-8.021.333-.539.03-.979-.672-.979-1.355 0-5.841-4.728-5.841-6.156 0-.464.563-.878 1.25-.921.688-.042 2.15-.302 3.25-.579 3.304-.83 18.5-1.898 18.5-1.3 0 .727 12.071 3.218 12.673 2.616.254-.254-1.369-.771-3.606-1.149S54 165.428 54 164.943c0-.484-.675-.621-1.5-.305-.825.317-1.5.19-1.5-.281.001-1.043-17.687-1.155-19.331-.122M115 165c0 .55.477 1 1.059 1s.781-.45.441-1-.816-1-1.059-1-.441.45-.441 1m-35 2c0 .55.423 1 .941 1s1.219-.45 1.559-1c.34-.55-.084-1-.941-1S80 166.45 80 167m3.2.2c-1.7 1.7-1.488 2.794.55 2.836.963.02 3.1 1.151 4.75 2.514 2.576 2.128 1.685 1.91-6.3-1.536-5.115-2.208-9.84-3.995-10.5-3.972-.66.024 1.275 1.079 4.3 2.346 6.754 2.83 21.972 10.577 27.846 14.177 4.029 2.469 4.264 2.509 3.215.549-.928-1.735-.85-2.114.439-2.114 1.266 0 1.361-.392.489-2.021-.595-1.111-.809-2.461-.476-3 .553-.895-1.104-1.201-6.513-1.201-3.218 0-3.233.101-.405 2.722 1.483 1.375 2.355 2.5 1.937 2.5-1.427 0-8.532-4.366-8.532-5.243 0-.481.52-.554 1.155-.162.738.457.882.273.398-.509-.415-.672-1.439-.96-2.275-.639-1.143.439-1.385.07-.977-1.489.348-1.33.122-1.922-.63-1.652-1.994.714-6.887-2.302-6.283-3.874.669-1.743-.548-1.872-2.188-.232m-20.2.751c0 .491 1.575 1.414 3.5 2.049 2.538.838 3.5 1.739 3.5 3.278 0 1.65.267 1.855 1.2.922 1.598-1.598 2.863-1.527 2.229.126-.36.938 1.094 1.616 4.979 2.32 6.163 1.117 6.399.061.513-2.294-2.149-.86-3.685-1.924-3.413-2.365.272-.44-.295-.594-1.26-.342-.965.253-3.89-.677-6.501-2.065S63 167.459 63 167.951m95 .762c0 1.711 1.467 1.634 2.953-.157.982-1.183.824-1.415-.877-1.287-1.142.086-2.076.736-2.076 1.444m-23.08 3.35c-2.518.397-6.498 1.701-8.843 2.898-4.113 2.098-4.202 2.243-2.526 4.096 3.197 3.532 11.127 7.968 21.585 12.074 12.726 4.996 17.463 6.434 26.048 7.905 5.562.954 6.579 1.424 6.062 2.805-.552 1.476-.424 1.499 1.164.206.982-.8 2.702-1.594 3.822-1.765 1.715-.261 1.838-.072.78 1.204-.691.833-1.877 1.514-2.634 1.514-.758 0-1.378.402-1.378.893 0 1.304-3.239 2.336-3.92 1.249-.319-.509-1.449.263-2.511 1.716l-1.932 2.642 2.315-2 2.314-2-.7 2.25c-.663 2.127-.427 2.25 4.308 2.25 2.754 0 5.291-.457 5.636-1.016.346-.559 1.047-.758 1.559-.441.512.316 1.494.211 2.181-.234.688-.445 2.822-.809 4.744-.809 1.992 0 3.496-.502 3.5-1.167.011-2.193 1.086-2.252 1.251-.069.09 1.199-.6 3.092-1.533 4.207-1.138 1.36-.793 1.229 1.045-.395 1.509-1.334 2.743-1.951 2.743-1.373 0 .579-.675 1.612-1.5 2.297s-1.5 1.847-1.5 2.583c0 1.668-4.024 5.52-5.082 4.866-1.267-.783-2.237 1.632-1.109 2.76 2.245 2.245.017 3.79-5.666 3.928l-5.643.137 6.5.904c3.575.497 7.77 1.067 9.322 1.268 3.486.451 4.468 1.314 2.398 2.108-1.242.477-.756 1.41 2.357 4.523 2.158 2.158 3.923 4.434 3.923 5.058 0 .624-.94-.06-2.088-1.52-4.333-5.509-13.187-8.278-29.412-9.198-9.81-.557-11.595-.39-16.5 1.54-3.025 1.191-6.277 3.15-7.228 4.354-1.018 1.29-1.737 1.644-1.75.862-.012-.73 1.331-2.68 2.985-4.334 1.654-1.654 2.709-3.489 2.346-4.078-.364-.588-.213-.792.336-.453s2.68.153 4.735-.415c2.694-.744 3.576-1.45 3.161-2.531-.351-.916.591-2.48 2.42-4.02 3.651-3.071 3.705-3.698.448-5.181-3.182-1.45-3.086-1.46-3.286.339-.092.825-.242 2.155-.334 2.956-.091.801-.51 1.243-.931.984-.42-.26-1.046-.015-1.392.544-1.17 1.893-3.009 1.028-3.154-1.485-.08-1.374.285-2.499.809-2.499s.624-.562.222-1.25c-.402-.687.247-.393 1.441.655 1.209 1.061 2.172 1.393 2.172.75 0-.635-.477-1.155-1.059-1.155s-.76-.485-.394-1.077c.431-.697-.342-.961-2.191-.75-1.7.195-2.748.855-2.588 1.631.147.717-.354 1.925-1.114 2.685-1.582 1.582-3.641.214-3.672-2.439-.011-.96-3.674-3.33-9.627-6.229-7.898-3.847-9.933-4.477-11.436-3.538-2.24 1.399-3.635.285-2.044-1.632.918-1.107.654-1.729-1.268-2.989-1.335-.875-3.593-1.802-5.017-2.06-2.35-.426-2.487-.279-1.486 1.591 1.43 2.673-.381 3.993-4.854 3.539-2.619-.266-3.25.03-3.25 1.528 0 1.22.429 1.6 1.25 1.107.933-.56.92-.343-.052.856-1.081 1.334-.974 2.596.63 7.442 1.062 3.209 2.738 7.511 3.725 9.56 1.539 3.196 2.146 3.638 4.27 3.105 1.64-.412 2.251-.258 1.81.455a1.263 1.263 0 00.399 1.735c.749.463.74 1.05-.032 1.98-1.245 1.5.304 3.048 2 2 .55-.34 1-.025 1 .7 0 .726.9 1.881 2 2.568s2 1.943 2 2.791c0 1.553 6.786 8.427 8.327 8.436.455.003 2.097-1.266 3.65-2.819 6.851-6.85 13.284-11.447 17.276-12.344 2.87-.645 4.321-.61 4.561.111.498 1.494 2.239 1.32 1.936-.193-.19-.951 2.138-1.168 9.736-.909 10.487.358 14.032 1.367 13.123 3.736-.32.833.063 1.423.922 1.423.808 0 1.469-.45 1.469-1 0-1.672 5.728-1.151 6.393.582.895 2.333.829 2.418-1.893 2.418-1.946 0-2.5.512-2.5 2.313 0 1.272-1.35 3.606-3 5.187-1.65 1.581-3 3.394-3 4.03 0 .635-1.575 2.003-3.5 3.04s-3.5 2.232-3.5 2.657c0 .425 7.618.773 16.929.773 12.663 0 17.261-.332 18.25-1.317 5.113-5.095 13.808-6.972 25.821-5.575l9 1.044c.825.095 2.063.887 2.75 1.761 1.129 1.434 1.394 1.401 2.737-.337 1.614-2.087 3.098-8.324 2.195-9.227-.306-.307-1.943.134-3.637.978-1.693.845-2.851 1.168-2.573.718.874-1.414-3.238-1.878-5.658-.638-3.26 1.672-8.227 1.435-8.551-.407-.145-.825 1.237-3.266 3.072-5.425l3.336-3.925 6.877 1.139c7.182 1.19 9.102.53 7.904-2.719-.29-.787-.533-5.849-.539-11.25-.011-9.409-.104-9.825-2.212-9.948-11.871-.692-18.701-.579-18.701.31 0 .607-1.739.86-4.25.618-2.338-.226-5.304.134-6.592.799-1.516.783-3.366.915-5.25.375-1.724-.495-2.908-.456-2.908.096 0 .511-.477.93-1.059.93s-.741-.515-.351-1.145c.504-.817-.124-.936-2.191-.415-3.244.817-8.408.884-9.174.119-.275-.275 2.062-3.632 5.193-7.459 5.12-6.257 6.216-7.08 10.887-8.166 2.857-.665 8.795-1.484 13.195-1.821l8-.613-5.283-2.208c-2.906-1.215-5.017-1.778-4.691-1.25.341.552-1.447 1.038-4.217 1.146-2.645.103-6.988.28-9.652.393-2.664.113-5.285.647-5.826 1.188-.644.644-.043.803 1.742.462 1.889-.361 2.507-.17 2.017.624-.39.63-1.324 1.145-2.076 1.145-.753 0-2.254 1.125-3.335 2.5-1.082 1.375-2.318 2.5-2.747 2.5-.429 0 .276-1.125 1.568-2.5 2.2-2.342 2.227-2.51.424-2.656-1.058-.085-2.936-.068-4.174.038-2.303.198-3.057-1.265-1.234-2.392 1.242-.768.316-2.496-1.325-2.475-.734.01-.616.425.309 1.085 1.145.815.739.938-1.711.517-1.766-.303-3.499-.086-3.851.483-.351.568-.031.95.712.848 2.465-.338 3.85.04 3.85 1.052 0 .55-1.8 1-4 1-3.816 0-5.404-1.321-2.75-2.289.688-.251-.409-.425-2.438-.387-2.028.038-3.428.489-3.11 1.002.317.513-.049.712-.813.441-.764-.271-2.627.132-4.139.896-4.123 2.082-3.421-.032 1.901-5.721 2.558-2.735 4.46-5.165 4.225-5.399-1.657-1.658-18.584-7.86-27.274-9.995-11.433-2.808-20.487-3.621-27.682-2.485m97.718.437c-.453 1.18.283 1.5 3.452 1.5 2.536 0 3.79-.386 3.385-1.041-.354-.572-1.505-.767-2.559-.432-1.071.34-1.916.137-1.916-.46 0-1.598-1.702-1.286-2.362.433m-6.138.5c-1.63.701-1.688.872-.309.93.93.038 1.969-.38 2.309-.93.711-1.15.676-1.15-2 0m18.5 0l-3.5.737 3.191.131c1.755.073 3.469-.318 3.809-.868.34-.55.479-.941.309-.868-.17.072-1.884.463-3.809.868m7.665 1.733c-.295.477.448 1.479 1.65 2.228 2.066 1.286 2.105 1.256.718-.55-.807-1.051-1.549-2.053-1.65-2.228-.1-.174-.424.074-.718.55m-69.115 4.117c.522.467 2.814 1.569 5.092 2.448 3.892 1.503 4.24 1.489 5.793-.226 1.52-1.679 1.522-1.875.026-2.448-2.471-.949-12.003-.751-10.911.226M16.5 182c-.34.55-.168 1 .382 1s1.278-.45 1.618-1c.34-.55.168-1-.382-1s-1.278.45-1.618 1m236.059 1.574c1.067.866 1.379 1.289.691.941-.786-.398-1.25.081-1.25 1.291 0 1.058-.9 3.068-2 4.467-3.339 4.245-2.243 4.37 2 .227 4.466-4.361 4.905-5.945 2.066-7.465-2.887-1.545-3.713-1.25-1.507.539m-230.53 2.387c-.809.512-1.211 1.191-.893 1.509.319.318 1.148-.108 1.844-.946 1.443-1.738 1.166-1.902-.951-.563m79.546 1.374c.297.774-.079 2.028-.835 2.786-1.13 1.134-3.74 7.114-3.74 8.57 0 .216 1.912-.723 4.25-2.088 4.768-2.783 7.675-2.155 7.85 1.697.059 1.277.485.564 1.016-1.701.504-2.145.796-3.985.65-4.088-6.167-4.34-9.615-6.282-9.191-5.176m147.056 1.185c-.348.905-1.124 1.293-1.778.889-.754-.466-.891-.279-.389.532.598.969 1.127.896 2.345-.321.864-.865 1.317-1.828 1.005-2.139-.312-.312-.844.156-1.183 1.039M5.756 189.664c.691.279 1.048.843.794 1.255-.254.411.081.79.744.842.663.052 2.331.377 3.706.722 1.932.485 1.704.17-1-1.386-1.925-1.107-3.95-1.997-4.5-1.976-.55.02-.435.265.256.543M253 191.5l-2.349 2.5h2.675c2.186 0 2.674-.457 2.674-2.5 0-1.375-.147-2.5-.326-2.5-.179 0-1.382 1.125-2.674 2.5m-229 .247l-2.5 1.338 2.5-.153c4.172-.256 5 .004 5 1.568 0 .825.422 1.5.938 1.5s.872-.869.792-1.931c-.08-1.062-.465-1.732-.857-1.491-.391.242-1.311-.147-2.042-.864-1.095-1.074-1.775-1.068-3.831.033m80.071-.332c-.746.898-1.059 1.93-.697 2.292.934.934 2.932-1.29 2.452-2.729-.276-.828-.818-.693-1.755.437m-59.824 3.835c2.896 3.76 6.773 5.356 4.615 1.9-.694-1.111-1.653-1.779-2.129-1.485-.477.295-1.115-.409-1.417-1.564-.302-1.156-1.229-2.101-2.061-2.101-1.145 0-.905.787.992 3.25M118 192.393c0 .216.698.661 1.552.989.89.341 1.291.173.941-.393-.587-.951-2.493-1.406-2.493-.596m124.733.731c.679.684 1.486.991 1.793.683.308-.308-.247-.867-1.233-1.243-1.425-.542-1.54-.428-.56.56m-15.983.538c.688.278 1.813.278 2.5 0 .688-.277.125-.504-1.25-.504s-1.937.227-1.25.504M16 194.92c0 1.138 6.78 2.633 7.713 1.7.341-.341-.384-.62-1.612-.62-1.228 0-3.103-.466-4.167-1.035-1.246-.667-1.934-.683-1.934-.045m97.25-.258c-1.416.572-1.72 3.338-.367 3.338.486 0 1.119-.9 1.407-2 .287-1.1.452-1.964.366-1.921-.086.043-.718.306-1.406.583m8.75-.232c0 .275.9.981 2 1.57 1.1.589 2 .845 2 .57s-.9-.981-2-1.57c-1.1-.589-2-.845-2-.57m-29.554 6.657c-.369.598-.171 1.588.441 2.2.817.817 1.113.646 1.113-.646 0-1.075.449-1.482 1.155-1.046.715.443.883.275.44-.44-.897-1.453-2.275-1.482-3.149-.068M114.5 201c-.34.55-.141 1 .441 1s1.059-.45 1.059-1-.198-1-.441-1-.719.45-1.059 1m-57.872 1.208c.686 1.108 3.372.993 3.372-.146 0-.516-.869-.872-1.931-.792-1.062.08-1.71.502-1.441.938m23.295-1.158c-.042.247-.227 1.237-.411 2.2-.37 1.933.985 2.373 2.042.663.369-.598.171-1.588-.441-2.2-.612-.612-1.147-.91-1.19-.663m5.765.596c-1.29 1.29-.691 2.23 1.324 2.078 1.107-.083 1.866-.59 1.688-1.125-.427-1.279-2.144-1.822-3.012-.953M71 202.883c0 .486.9 1.119 2 1.407 1.3.34 2 .03 2-.884 0-.773-.9-1.406-2-1.406s-2 .398-2 .883m6.079.7c.048 1.165.285 1.402.604.605.289-.722.253-1.585-.079-1.917-.332-.332-.568.258-.525 1.312m58.921-1.19c0 .216.698.661 1.552.989.89.341 1.291.173.941-.393-.587-.951-2.493-1.406-2.493-.596M118.5 204c.34.55 1.068 1 1.618 1s.722-.45.382-1c-.34-.55-1.068-1-1.618-1s-.722.45-.382 1m-30.33 3.318c.546 1.019.767 2.078.492 2.353-.275.275-.942-.326-1.482-1.335-.805-1.503-2.125-1.816-7.284-1.728-4.153.072-6.447.545-6.729 1.39-.25.752.04.992.703.582.622-.384 1.13-.248 1.13.302s-.445 1.275-.989 1.611c-.607.375-.378 1.543.594 3.026 1.144 1.746 1.393 3.532.901 6.448-.484 2.865-.331 4.033.529 4.033.931 0 .923.345-.035 1.5-.685.825-.852 1.529-.372 1.563.479.035-.141.471-1.378.968-2.257.907-3.125 2.969-1.25 2.969.55 0 1-.441 1-.981 0-.539 1.057-1.246 2.348-1.57 1.88-.472 2.268-1.123 1.945-3.269-.387-2.576-.352-2.599.902-.577.718 1.157 1.824 1.922 2.459 1.699.735-.258 1.077.704.943 2.647-.143 2.063.246 3.051 1.203 3.051.9 0 1.185-.596.784-1.641-.532-1.386-.388-1.441.925-.352 1.373 1.14 1.436.978.534-1.394-1.112-2.924-1.252-2.802 5.084-4.444 4.239-1.099 7.093.011 5.115 1.989-.683.683-1.242 1.602-1.242 2.042 0 .44.967-.167 2.148-1.348 1.751-1.751 1.936-2.488 1-3.987-.631-1.011-1.148-2.758-1.148-3.883s-.713-2.318-1.584-2.653c-1.143-.438-1.252-.812-.391-1.344.799-.494.968-2.066.513-4.763-.642-3.795-.901-4.047-4.52-4.392-3.477-.331-3.746-.191-2.848 1.488m53.913-1.953c.23.2 1.542.9 2.917 1.555 2.357 1.122 2.389 1.102.559-.365-1.593-1.276-4.848-2.391-3.476-1.19M190 209.441c0 .857.45 1.559 1 1.559s1-.423 1-.941-.45-1.219-1-1.559c-.55-.34-1 .084-1 .941M119.244 212c.107 1.375-.13 3.021-.526 3.657-.485.778-.074.987 1.257.639 1.456-.38 1.755-.949 1.136-2.156a48.573 48.573 0 01-1.451-3.14c-.346-.852-.526-.421-.416 1M135 211c0 .55.477 1 1.059 1s.781-.45.441-1-.816-1-1.059-1-.441.45-.441 1m-13 1c0 .55.477 1 1.059 1s.781-.45.441-1-.816-1-1.059-1-.441.45-.441 1m17.75 2.083c-1.682 1.843-1.657 1.917.643 1.917 2.296 0 4.117-2.157 2.871-3.402-.905-.906-1.598-.613-3.514 1.485m-10.275-.043c-.421.682.333.806 2.191.359 3.832-.92 4.194-1.399 1.06-1.399-1.435 0-2.897.468-3.251 1.04m15.192.627c-1.458 1.457-.547 3.329 1.583 3.254 1.238-.043 1.713-.297 1.056-.565-.656-.267-.946-1.131-.643-1.921.561-1.461-.785-1.979-1.996-.768m23.916 2.199c-.431.697-.513 1.537-.183 1.867.895.895 1.871-.421 1.387-1.871-.338-1.016-.574-1.016-1.204.004M63 218.393c0 .216.698.661 1.552.989.89.341 1.291.173.941-.393-.587-.951-2.493-1.406-2.493-.596M70 220c-.901.582-1.025.975-.309.985.655.008 1.469-.435 1.809-.985.767-1.242.421-1.242-1.5 0m14.25 2.22c-1.237.597-2.25 1.478-2.25 1.958 0 .481 1.35.175 3-.678 4.522-2.339 3.844-3.495-.75-1.28m45.314.073c.376.986.935 1.541 1.243 1.233.308-.307.001-1.114-.683-1.793-.988-.98-1.102-.865-.56.56m-20.812 2.457c.261 1.787.874 3.25 1.361 3.25.488 0 .887.873.887 1.941s.45 2.219 1 2.559c.55.34 1 1.097 1 1.681 0 .671-.554.604-1.5-.181-1.183-.982-1.5-.985-1.5-.011 0 .863-1.028 1.041-3.422.592-3.841-.721-4.701-.008-3.523 2.919.442 1.1.836 1.438.875.75.038-.687 1.003-1.25 2.143-1.25h2.072l-2.072 2.635c-1.916 2.435-2.767 5.365-1.559 5.365.418 0 2.286-.947 5.379-2.726.215-.124-.177-.912-.873-1.75-.697-.839-.816-1.524-.265-1.524.55 0 1.601.724 2.335 1.608 1.134 1.367 1.048 1.818-.569 3-1.047.766-2.492 1.392-3.212 1.392-.72 0-1.309.457-1.309 1.015 0 1.422-6.241 5.086-7.718 4.531-.67-.252-1.452-.079-1.739.384-.286.463.433 1.092 1.598 1.397 1.413.369 1.919 1.073 1.52 2.113-1.02 2.66 2.282 1.778 3.521-.94 1.248-2.74 2.373-3.185 3.159-1.25.399.986.701.974 1.425-.053.504-.716 1.326-1.226 1.826-1.131 2.115.398 2.452-.165.979-1.637-2.034-2.035-1.981-2.748.366-4.872 2.465-2.231 4.491-1.226 3.031 1.504-.842 1.572-.71 1.939.697 1.939 1.349 0 1.468.267.535 1.2-1.742 1.742-1.474 3.273.313 1.789.832-.691 1.395-1.967 1.25-2.836-.591-3.55 6.541-2.576 10.559 1.442 2.485 2.484 6.661 2.804 5.172.396-.348-.563-1.062-.758-1.588-.433-.525.325-.832-.005-.681-.734.161-.774-.637-1.336-1.922-1.354-1.208-.017-2.52-.354-2.916-.75-.396-.396-.147-.72.554-.72.701 0-1.16-2.629-4.135-5.843-4.723-5.101-8.408-10.086-12.418-16.797-.932-1.559-1.034-1.335-.636 1.39M17.5 224c-.782 1.266.542 1.266 2.5 0 1.293-.835 1.266-.971-.191-.985-.93-.008-1.969.435-2.309.985m8.5 0c-1.219.788-1.09.972.691.985 1.205.008 2.469-.435 2.809-.985.787-1.273-1.53-1.273-3.5 0m123.5 1c-.995 1.1-1.474 2-1.063 2 .411 0 1.892-.9 3.29-2 1.636-1.287 2.015-2 1.063-2-.814 0-2.295.9-3.29 2m12.583-.589c.23.225 4.242.617 8.917.869 4.702.253 7.383.114 6-.311-2.587-.797-15.654-1.285-14.917-.558m-71.341 1.705c-.967.546-2.204.716-2.75.379-.546-.337-.992-.189-.992.329 0 1.316 4.275 2.301 5.345 1.231 1.551-1.551.328-3.028-1.603-1.939m-53.277 1.286c-1.546 1.13-1.663 1.655-.642 2.885.686.826 1.119 1.955.962 2.508-.294 1.036.097 1.205 2.782 1.205 1.09 0 1.382-.584.96-1.916-.335-1.054-.14-2.205.432-2.559.573-.354 1.041.059 1.041.916S43.477 232 44.059 232s.781-.45.441-1c-.343-.555.397-1 1.663-1h2.282l-2.265-1.587c-1.513-1.059-2.667-1.266-3.473-.622-.664.53-2.332 1.268-3.707 1.638-2.394.646-2.418.609-.573-.867 2.447-1.957 1.571-3.012-.962-1.16m85.614.313c-.088 2.475 3.365 4.994 4.446 3.244.767-1.241-1.396-4.157-2.553-3.442-.441.273-1.029-.07-1.308-.761-.278-.691-.542-.259-.585.959m-62.262 1.003c-3.954 2.453-4.788 7.282-1.258 7.282 1.869 0 1.841 1.423-.059 3-2.309 1.916-1.783 2.903 1.131 2.123 2.602-.695 2.752-1.068 3.571-8.873.175-1.67 1.98-1.58 4.357.218 1.897 1.435 1.892 1.469-.25 1.5-1.205.018-2.469.482-2.809 1.032-.823 1.332.825 1.265 3.953-.161 2.7-1.23 3.198-2.319 1.531-3.349-.559-.346-.758-1.047-.441-1.559.316-.512-.378-.931-1.543-.931s-1.84-.45-1.5-1c1.105-1.787-1.366-1.054-2.526.75-1.071 1.667-1.099 1.667-.581 0 .673-2.164-.129-2.171-3.576-.032m37.489-1.019c-.656.237-.968 1.018-.692 1.737.275.718-.2 2.007-1.056 2.864-.857.856-1.558 1.814-1.558 2.129 0 1.023 3.864.601 4.542-.497.363-.588 1.275-.832 2.027-.544.752.289 1.633.094 1.958-.432.325-.526-.391-.956-1.59-.956-1.732 0-1.948-.282-1.047-1.367 1.309-1.578-.536-3.672-2.584-2.934m-65.699 1.883c-.867 2.258-.784 2.423.893 1.78.825-.317 1.5-1.203 1.5-1.969 0-1.895-1.643-1.765-2.393.189m97.192-.454c-.354.896-.119 2.152.521 2.792.884.884.831 1.369-.224 2.021-.884.546-1.117 1.529-.642 2.708.698 1.732.8 1.712 1.576-.297.456-1.181 1.311-2.445 1.9-2.809 1.638-1.012 1.313-3.85-.367-3.205-.85.326-1.578-.142-1.78-1.143-.31-1.538-.401-1.545-.984-.067m14.606 1.122l-1.905 2.25 2.25-1.905c1.238-1.048 2.25-2.06 2.25-2.25 0-.8-.805-.209-2.595 1.905m-67.543-.232c-.901.526-1.922 2.085-2.268 3.463-.346 1.379-.959 2.421-1.362 2.315-.402-.106-1.745.153-2.984.574-1.78.606-2.124 1.275-1.642 3.198.372 1.48.177 2.432-.498 2.432-.609 0-1.108.44-1.108.979 0 .592.998.523 2.528-.174 1.457-.664 2.079-1.43 1.467-1.808-.585-.361-.774-1.408-.422-2.327.718-1.872 2.427-2.27 2.427-.565 0 .608 1.117.045 2.483-1.25 1.365-1.295 2.49-3.052 2.5-3.905.009-.853.557-2.09 1.217-2.75 1.425-1.425-.018-1.538-2.338-.182M60.2 231.2c-1.723 1.723-1.48 2.8.633 2.8 2.36 0 3.165-.841 2.491-2.598-.659-1.718-1.551-1.775-3.124-.202m28.78.324c-1.599 1.927-.732 2.85 1.894 2.016 1.239-.393 1.808-1.204 1.468-2.091-.714-1.861-1.775-1.837-3.362.075m-44.497 1.812c-1.727 1.239-2.879 2.874-2.694 3.825.288 1.48.618 1.508 3.017.257 1.482-.773 3.194-1.408 3.805-1.412.646-.003.911-1.054.634-2.506-.567-2.966-.843-2.976-4.762-.164m10.902-1.571c-.614.404-1.433 1.754-1.822 3-.389 1.245-1.077 2.035-1.53 1.755-.453-.28-1.096.201-1.428 1.068-1.013 2.638-.698 2.805 1.541.817 1.544-1.37 2.269-1.554 2.583-.655.935 2.671 2.064 1.057 1.921-2.744l-.15-3.985c0 .005-.502.34-1.115.744M107 232c0 .55.477 1 1.059 1s.781-.45.441-1-.816-1-1.059-1-.441.45-.441 1m29 0c0 .55.477 1 1.059 1s.781-.45.441-1-.816-1-1.059-1-.441.45-.441 1m-124.935 2.121c.797 1.49.808 1.918.035 1.441-.605-.374-1.1-.203-1.1.379 0 .582.852 1.059 1.894 1.059 1.392 0 1.856-.662 1.75-2.499-.097-1.679-.73-2.5-1.929-2.5-1.509-.001-1.61.327-.65 2.12m7.514-1.227c-1.025 1.633-1.79 7.106-.994 7.106.301 0 1.446-.481 2.545-1.07 1.369-.732 1.697-1.442 1.042-2.25-.526-.649-1.128-2.08-1.338-3.18-.301-1.578-.565-1.706-1.255-.606M166.5 233c.34.55.816 1 1.059 1s.441-.45.441-1-.477-1-1.059-1-.781.45-.441 1m6 .057c2.2.455 4.9.847 6 .87 1.652.035 1.739-.126.5-.927-.825-.533-3.525-.925-6-.87l-4.5.1 4 .827M29 234.059c0 .582.45.781 1 .441s1-.816 1-1.059-.45-.441-1-.441-1 .477-1 1.059m53.573 2.095c-2.008 4.025-2.009 5.424-.002 3.417.865-.864 2.327-1.578 3.25-1.586 1.251-.012 1.351-.224.395-.83-.708-.449-.996-1.564-.643-2.485 1.154-3.006-1.387-1.749-3 1.484m-57.001.548c.195 1.78-.364 3.164-1.638 4.057-2.757 1.931-2.449 4.241.566 4.241 1.482 0 2.5-.573 2.5-1.406 0-.935-.755-1.245-2.25-.926-2.168.463-2.181.424-.358-1.058 1.04-.846 2.241-1.667 2.667-1.824.964-.355-.011-5.786-1.038-5.786-.41 0-.613 1.216-.449 2.702m65.132-.374c-.28.73-2.015 2.07-3.857 2.977-1.841.907-2.672 1.675-1.847 1.705 1.065.04.815.628-.861 2.023-2.611 2.176-5.651 2.566-6.705.86-.461-.745.011-.887 1.441-.433 1.261.4 2.125.241 2.125-.393A1.07 1.07 0 0079.933 242c-.634 0-.793-.864-.393-2.125.737-2.323.687-2.306-5.436 1.836-3.766 2.548-7.152 7.628-4.373 6.562 1.04-.399 1.376-.133 1.03.818-.281.775-1.017 1.297-1.636 1.159-1.298-.288-1.432.719-.326 2.46.561.882 1.571.565 3.735-1.173 2.431-1.953 2.677-2.496 1.364-3.01-1.96-.768-1.387-5.126.785-5.959 1.178-.452 1.343.038.817 2.432-.543 2.47-.38 2.891.921 2.392 2.868-1.101 1.719 2.412-1.39 4.249-3.369 1.99-4.71 4.359-2.468 4.359.825 0 1.762-.683 2.082-1.518.32-.834 1.094-1.456 1.719-1.381 2.979.357 3.636-.293 3.636-3.601 0-2.833.381-3.5 2-3.5 1.1 0 2 .44 2 .979 0 .599.952.544 2.459-.142 2.054-.936 2.286-1.445 1.408-3.086-.744-1.389-.732-2.286.04-3.058.791-.791 1.093-.622 1.093.607 0 1.033.784 1.7 2 1.7 1.1 0 2-.45 2-1s-.775-1-1.723-1c-1.43 0-1.352-.259.459-1.527 1.26-.883 1.942-2.149 1.615-3-.703-1.832-1.973-1.902-2.647-.145m77.064-.603c1.797.222 4.497.218 6-.01 1.503-.229.032-.411-3.268-.405-3.3.005-4.529.192-2.732.415M32.275 238c-.088 1.163.466 2 1.322 2 1.163 0 1.248-.421.403-2-.589-1.1-1.184-2-1.322-2-.139 0-.32.9-.403 2M36 236.938c0 .516.9.87 2 .787 1.1-.083 2-.505 2-.938 0-.433-.9-.787-2-.787s-2 .422-2 .938m61 1.169c0 1.442-.464 1.929-1.468 1.544-1.898-.729-2.665.541-1.448 2.397.812 1.238 1.105 1.193 1.987-.304.733-1.243 1.749-1.576 3.48-1.142 2.157.541 2.419.307 2.229-1.994-.282-3.399-4.78-3.87-4.78-.501m-93.75.599c-1.238.238-2.25.838-2.25 1.332 0 .495.753.61 1.674.257 1.29-.495 1.519-.24 1 1.113-.371.966-.674 1.97-.674 2.233 0 .262-.45.199-1-.141-.55-.34-1-.141-1 .441 0 1.729 2.731 1.204 3.447-.663.566-1.475.794-1.511 1.591-.25.568.898.937 1.008.947.281.008-.655-.415-1.457-.941-1.782-.526-.325-.703-1.252-.393-2.059.309-.807.402-1.407.206-1.332-.196.075-1.369.331-2.607.57m5.417-.039C7.533 239.8 7.929 241 9.438 241c.821 0 1.373.857 1.287 2-.087 1.159-.867 2-1.856 2-2.903 0-4.766 1.104-4.229 2.505.283.736.003 2.294-.623 3.463-1.056 1.974-.992 2.033.916.842 1.229-.768 1.843-1.942 1.53-2.927-.503-1.584 2.215-3.538 3.347-2.407.288.288-.002.524-.643.524-.642 0-1.167.45-1.167 1 0 1.423 1.7 1.237 3.181-.349.693-.742 2.173-1.121 3.289-.843 1.95.486 1.961.427.28-1.48-.963-1.092-1.75-2.948-1.75-4.125 0-1.585-.431-1.975-1.664-1.502-1.119.43-1.427.256-.941-.531.765-1.238-.597-1.635-1.728-.503M45.5 239c.34.55 1.041 1 1.559 1s.941-.45.941-1-.702-1-1.559-1-1.281.45-.941 1m-7.697.68c.975.391.849.866-.5 1.889-1.687 1.28-1.651 1.369.569 1.399 1.723.023 2.134.387 1.5 1.329-.479.714-.125.489.788-.5 2.13-2.305 2.84-2.269 2.84.144 0 2.74 1.73 3.485 2.495 1.074.352-1.108 1.37-2.015 2.264-2.015 1.354 0 1.301.244-.318 1.468-1.092.826-1.395 1.482-.692 1.5.799.021 1.16 1.26 1 3.435-.137 1.871-.586 3.194-.999 2.941-.413-.254-.75.015-.75.597 0 1.34 1.142 1.337 4.685-.016 2.611-.996 2.686-1.17 1.029-2.386-2.048-1.505-3.142-5.539-1.502-5.539.604 0 .285-.898-.709-1.996-1.399-1.547-2.117-1.739-3.184-.854-1.067.886-1.892.66-3.663-1.003-1.257-1.181-3.156-2.111-4.22-2.068-1.151.047-1.408.29-.633.601m-22.333 1.368c-.465.753 1.054 3.086 2.142 3.287 1.016.189 1.001 1.181-.069 4.54-.524 1.644-.414 2.164.357 1.687.613-.379 1.384.015 1.714.875.764 1.991 2.386 2.035 2.386.063 0-.825-.788-1.514-1.75-1.532-1.53-.028-1.562-.184-.25-1.25.825-.67 1.5-2.793 1.5-4.718 0-3.18-.26-3.5-2.845-3.5-1.566 0-2.998.246-3.185.548m37.127.456c-1.67 1.264-1.708 1.516-.314 2.051.933.358 1.346 1.248.999 2.152-.334.87.1 1.927.998 2.43 1.169.654 1.442 1.804 1.03 4.341-.548 3.374-.505 3.426 1.903 2.289 2.244-1.058 2.349-1.383 1.177-3.642-1.104-2.128-1.047-2.655.401-3.714 2.306-1.686 3.451-.732 2.116 1.763-1.09 2.037-1.075 2.039 1.997.223 1.703-1.005 3.096-2.406 3.096-3.113 0-1.387-1.568-1.759-2.253-.534-.533.953.056-1.263.873-3.283.531-1.314.246-1.363-2-.34-1.441.657-2.62 1.572-2.62 2.034 0 .461-.337.743-.75.627-.413-.117-1.763.349-3 1.035-2.584 1.432-2.911.434-.782-2.382.808-1.067 1.483-2.279 1.5-2.691.052-1.211-2.314-.803-4.371.754m-21.475.4c-1.614 1.021-.651 3.096 1.437 3.096.793 0 1.441.244 1.441.542 0 1.193-3.641 4.253-5.882 4.943-1.31.404-1.952 1.022-1.427 1.374.525.353 1.245 1.428 1.601 2.391.355.963 1.645 1.75 2.868 1.75 2.115 0 2.133-.065.369-1.355-1.292-.945-1.623-1.93-1.091-3.25.726-1.805.801-1.794 1.584.231.627 1.623 1.432 2.01 3.4 1.634 1.418-.271 2.578-.891 2.578-1.377 0-1.136-.699-1.114-2.955.093-1.435.768-1.931.568-2.324-.935-.511-1.952 1.651-3.547 3.369-2.485.501.309.91.085.91-.497S36.55 247 36 247s-.947-.338-.882-.75c.358-2.262-.334-3.017-2.368-2.582-2.194.468-2.201.441-.309-1.094 2.043-1.656 1.041-2.165-1.319-.67m69.097.433c-1.255.697-2.013 1.536-1.685 1.864.329.328-1.019 1.83-2.996 3.337-1.976 1.508-3.85 2.483-4.165 2.168-.939-.939.62-2.706 2.386-2.706 1.353 0 1.408-.22.316-1.25-1.06-1-1.417-1-1.783 0-.252.688-1.093 1.25-1.869 1.25-.897 0-1.286.818-1.068 2.245.216 1.417 1.044 2.247 2.244 2.25 1.396.004 1.818.602 1.588 2.255-.214 1.541.201 2.25 1.318 2.25 1.231 0 1.459-.551.93-2.25-.385-1.238-1.122-2.411-1.638-2.607-.516-.196.27-.984 1.746-1.75 3.193-1.656 3.786-1.734 2.952-.385-.344.557.573.463 2.055-.213 1.472-.67 2.176-1.386 1.563-1.591-1.32-.44-1.51-3.204-.22-3.204.491 0 1.152-.675 1.469-1.5.693-1.807-.108-1.848-3.143-.163m-59.971 5.637c-.992 1.589-.966 1.855.139 1.431 1.008-.387 1.231.203.868 2.287l-.49 2.808 2.339-2.25c2.336-2.246 2.337-2.254.352-4.239-1.97-1.969-2.001-1.969-3.208-.037m-15.581.693c-.367.366-.653 1.379-.637 2.25.025 1.3.221 1.257 1.092-.242 1.077-1.852.765-3.228-.455-2.008m-14.985 3.581l-2.817 3.011 2.537-.485c1.396-.267 2.3-.1 2.009.37-.291.471.424.856 1.589.856s1.84-.45 1.5-1c-.34-.55-.141-1 .441-1S16 253.498 16 252.883c0-.656-1.046-.916-2.536-.631-2.419.462-2.458.399-.845-1.384.93-1.027 1.284-1.815.786-1.749-.498.065-2.173 1.473-3.723 3.129m53.254-.118l-3.455 3.456 4.259.185c4.317.188 5.687-1.009 2.538-2.218-1.37-.526-1.447-.83-.378-1.491.739-.457 1.152-1.406.918-2.109-.276-.827-1.645-.06-3.882 2.177m20.829-.24c-3.272 3.467-2.656 4.518 1.33 2.27 2.567-1.448 3.062-1.472 3.87-.189.509.809 1.135 1.259 1.391 1 .256-.259-.517-1.7-1.717-3.201l-2.183-2.731-2.691 2.851M161 250.271c0 .833.675 1.774 1.5 2.091.825.316 1.5.194 1.5-.271s-.675-1.406-1.5-2.091c-1.221-1.013-1.5-.963-1.5.271m5 .76c0 .533.675.969 1.5.969s1.5-.177 1.5-.393c0-.216-.675-.652-1.5-.969-.825-.316-1.5-.139-1.5.393M104 254c0 .55.45 1 1 1s1-.45 1-1-.45-1-1-1-1 .45-1 1m-54 1c-1.213.784-1.069.972.75.985 1.237.008 2.25-.435 2.25-.985 0-1.253-1.061-1.253-3 0m26 .094c0 .498.9.906 2 .906s2-.173 2-.383c0-.211-.9-.619-2-.907-1.1-.287-2-.115-2 .384m31.5-.094c-.34.55.057 1 .882 1s1.778-.45 2.118-1c.34-.55-.057-1-.882-1s-1.778.45-2.118 1m51.5 0c0 .55.423 1 .941 1s1.219-.45 1.559-1c.34-.55-.084-1-.941-1s-1.559.45-1.559 1" fill="#1976D2" fill-rule="evenodd"/></svg>